<svg width="512" height="512" viewBox="0 0 512 512" fill="none" xmlns="http://www.w3.org/2000/svg">
<path d="M335.055 266.078C335.055 333.98 280.012 389.023 212.109 389.023C144.207 389.023 89.1641 333.98 89.1641 266.078C89.1641 198.176 144.207 143.133 212.109 143.133C280.012 143.133 335.055 198.176 335.055 266.078Z" fill="#FD8F3E"/>
<path d="M299.039 179.141C347.055 227.156 347.055 304.996 299.039 353.012C256.93 395.125 191.863 400.305 144.117 368.535C150.812 364.086 157.16 358.914 163.066 353.012C211.078 304.996 211.078 227.156 163.066 179.141C157.16 173.238 150.812 168.066 144.117 163.617C191.871 131.856 256.938 137.035 299.039 179.141Z" fill="#FE672D"/>
<path d="M443.512 297.852C439.273 227.848 381.172 172.383 310.105 172.383C252.789 172.383 203.906 208.465 184.91 259.148C135.555 259.742 95.7227 299.918 95.7227 349.414C95.7227 399.285 136.148 439.715 186.02 439.715H441.031C480.227 439.715 511.996 407.941 511.996 368.75C511.996 330.391 481.555 299.156 443.512 297.852Z" fill="#FAB03C"/>
<path d="M512 368.746C512 407.938 480.223 439.715 441.031 439.715H435.535C440.68 429.895 443.594 418.707 443.594 406.855C443.594 368.496 413.152 337.262 375.109 335.949C370.871 265.953 312.766 210.48 241.695 210.48C232.113 210.48 222.77 211.492 213.766 213.406C238.078 188.125 272.25 172.387 310.105 172.387C381.172 172.387 439.277 227.848 443.516 297.855C481.559 299.152 512 330.391 512 368.746Z" fill="#FD8F3E"/>
<path d="M408.133 290.004C404.695 290.004 401.574 287.66 400.738 284.168C399.5 279.023 397.809 273.953 395.711 269.102C394.039 265.242 395.813 260.762 399.672 259.094C403.535 257.422 408.012 259.199 409.68 263.055C412.129 268.711 414.098 274.617 415.539 280.613C416.52 284.699 414.004 288.809 409.918 289.793C409.32 289.934 408.723 290.004 408.133 290.004Z" fill="#FAB03C"/>
<path d="M382.879 243.91C380.879 243.91 378.883 243.125 377.387 241.566C359.598 223.035 335.703 212.828 310.105 212.828C305.902 212.828 302.492 209.422 302.492 205.219C302.492 201.016 305.902 197.609 310.105 197.609C339.891 197.609 367.684 209.477 388.371 231.027C391.281 234.062 391.184 238.879 388.148 241.789C386.672 243.203 384.773 243.91 382.879 243.91Z" fill="#FAB03C"/>
<path d="M76.2734 338.293C79.3047 288.246 120.844 248.594 171.648 248.594C212.625 248.594 247.574 274.387 261.152 310.621C296.441 311.047 324.918 339.77 324.918 375.156C324.918 410.809 296.016 439.711 260.363 439.711C245.438 439.711 93.3828 439.711 78.0469 439.711C50.0273 439.711 27.3125 416.996 27.3125 388.98C27.3125 361.555 49.0781 339.227 76.2734 338.293Z" fill="#F8E98E"/>
<path d="M324.918 375.164C324.918 410.508 296.496 439.223 261.254 439.699C271.82 428.199 278.262 412.879 278.262 396.047C278.262 360.66 249.789 331.938 214.496 331.508C200.914 295.281 165.973 269.48 124.988 269.48C120.148 269.48 115.395 269.848 110.742 270.539C127.273 256.832 148.496 248.598 171.648 248.598C212.629 248.598 247.57 274.387 261.152 310.625C296.445 311.055 324.918 339.766 324.918 375.164Z" fill="#F6CB43"/>
<path d="M438.684 123.773C429.949 123.773 422.086 127.574 416.656 133.605C411.227 127.574 403.363 123.773 394.629 123.773C378.285 123.773 364.992 137.07 364.992 153.41C364.992 157.617 368.398 161.023 372.602 161.023C376.809 161.023 380.215 157.613 380.215 153.41C380.215 145.465 386.68 138.996 394.629 138.996C400.469 138.996 405.496 142.488 407.762 147.492C404.426 148.301 401.949 151.297 401.949 154.883C401.949 159.086 405.355 162.492 409.559 162.492H423.754C427.957 162.492 431.367 159.086 431.367 154.883C431.367 151.301 428.887 148.301 425.555 147.492C427.82 142.492 432.848 138.996 438.684 138.996C446.633 138.996 453.102 145.465 453.102 153.414C453.102 157.617 456.508 161.023 460.711 161.023C464.918 161.023 468.324 157.617 468.324 153.414C468.324 137.07 455.027 123.773 438.684 123.773Z" fill="#BE7560"/>
<path d="M372.602 110.25C376.805 110.25 380.215 106.844 380.215 102.641C380.215 86.2969 366.918 73 350.574 73C341.84 73 333.977 76.8008 328.547 82.832C323.117 76.8008 315.254 73 306.52 73C290.176 73 276.879 86.2969 276.879 102.641C276.879 106.844 280.285 110.25 284.492 110.25C288.695 110.25 292.102 106.844 292.102 102.641C292.102 94.6914 298.57 88.2227 306.52 88.2227C312.355 88.2227 317.383 91.7188 319.648 96.7188C316.316 97.5273 313.836 100.523 313.836 104.109C313.836 108.312 317.242 111.719 321.449 111.719H335.645C339.848 111.719 343.258 108.312 343.258 104.109C343.258 100.527 340.777 97.5312 337.445 96.7188C339.711 91.7188 344.738 88.2227 350.574 88.2227C358.523 88.2227 364.988 94.6914 364.988 102.641C364.988 106.844 368.398 110.25 372.602 110.25Z" fill="#7C3C2F"/>
<path d="M73.6953 141.277C64.9609 141.277 57.0977 145.078 51.6641 151.109C46.2383 145.078 38.375 141.277 29.6406 141.277C13.2969 141.277 0 154.57 0 170.914C0 175.117 3.40625 178.527 7.60938 178.527C11.8164 178.527 15.2227 175.117 15.2227 170.914C15.2227 162.965 21.6875 156.5 29.6367 156.5C35.4766 156.5 40.5039 159.992 42.7656 164.996C39.4336 165.805 36.957 168.801 36.957 172.383C36.957 176.586 40.3633 179.992 44.5664 179.992H58.7617C62.9648 179.992 66.3711 176.586 66.3711 172.383C66.3711 168.801 63.8945 165.805 60.5625 164.992C62.8242 159.992 67.8516 156.496 73.6914 156.496C81.6406 156.496 88.1055 162.965 88.1055 170.914C88.1055 175.117 91.5156 178.523 95.7188 178.523C99.9219 178.523 103.328 175.117 103.328 170.914C103.332 154.57 90.0352 141.277 73.6953 141.277Z" fill="#915040"/>
</svg>
