<svg width="512" height="512" viewBox="0 0 512 512" fill="none" xmlns="http://www.w3.org/2000/svg">
<g clip-path="url(#clip0)">
<path d="M499.541 291.605C494.303 290.295 489.066 291.605 484.483 294.878C467.46 309.282 447.819 321.066 426.214 328.923C405.918 336.779 383.658 340.708 360.088 340.708C307.057 340.708 258.609 319.102 223.91 284.403C189.21 249.703 167.605 201.255 167.605 148.224C167.605 125.964 171.533 104.359 178.08 84.7173C185.282 63.7667 195.757 44.7803 209.506 28.4126C215.398 21.2108 214.089 10.7355 206.887 4.84317C202.304 1.56964 197.067 0.26023 191.829 1.56964C136.179 16.6279 87.7307 50.0179 53.0312 94.5379C19.6412 138.403 0 192.744 0 251.667C0 323.03 28.8071 387.846 75.9459 434.985C123.085 482.124 187.246 510.931 259.264 510.931C319.497 510.931 375.147 489.981 419.667 455.281C464.841 419.927 497.577 369.515 511.326 311.9C513.944 302.735 508.707 293.569 499.541 291.605Z" fill="black"/>
</g>
<defs>
<clipPath id="clip0">
<rect width="512" height="512" fill="white"/>
</clipPath>
</defs>
</svg>
