<svg width="512" height="512" viewBox="0 0 512 512" fill="none" xmlns="http://www.w3.org/2000/svg">
<path fill-rule="evenodd" clip-rule="evenodd" d="M255.887 364.493C324.093 364.493 379.711 308.874 379.711 240.697C379.711 172.492 324.093 116.875 255.887 116.875C187.709 116.875 132.091 172.493 132.091 240.697C132.091 308.874 187.709 364.493 255.887 364.493Z" fill="#FCBF66"/>
<path fill-rule="evenodd" clip-rule="evenodd" d="M255.887 116.875C324.281 116.875 379.711 172.304 379.711 240.697C379.711 309.063 324.281 364.493 255.887 364.493C251.88 364.493 247.926 364.305 244.027 363.928C306.854 357.958 355.99 305.057 355.99 240.698C355.99 176.312 306.854 123.411 244.027 117.44C247.926 117.063 251.88 116.875 255.887 116.875Z" fill="#F7B551"/>
<path fill-rule="evenodd" clip-rule="evenodd" d="M13 466.772H498.775V309.87C498.775 302.393 495.09 298.091 487.182 295.482C471.314 290.237 455.635 278.162 439.794 278.162C419.354 278.162 398.914 298.091 378.5 298.091C358.06 298.091 337.62 278.162 317.18 278.162C296.767 278.162 276.326 298.091 255.886 298.091C235.447 298.091 215.032 278.162 194.593 278.162C174.154 278.162 153.713 298.091 133.299 298.091C112.86 298.091 92.4194 278.162 71.9799 278.162C56.085 278.162 40.4852 290.103 24.5912 295.482C14.6945 298.816 13 305.648 13 309.87L13 466.772Z" fill="#62D9FA"/>
<path fill-rule="evenodd" clip-rule="evenodd" d="M13 345.612V466.772H498.775V345.612C479.114 346.984 459.454 365.434 439.794 365.434C419.354 365.434 398.914 345.531 378.5 345.531C358.06 345.531 337.62 365.434 317.18 365.434C296.767 365.434 276.326 345.531 255.886 345.531C235.447 345.531 215.032 365.434 194.593 365.434C174.154 365.434 153.713 345.531 133.299 345.531C112.86 345.531 92.4194 365.434 71.9799 365.434C52.3193 365.434 32.6606 346.984 13 345.612H13Z" fill="#98E5FA"/>
<path fill-rule="evenodd" clip-rule="evenodd" d="M71.9808 412.876C52.3193 412.876 32.6606 431.326 13 432.724V469.139C13 477.773 17.2496 481 24.8607 481H486.914C495.224 481 498.775 477.234 498.775 469.139V432.724C479.114 431.326 459.454 412.876 439.794 412.876C419.354 412.876 398.914 432.805 378.5 432.805C358.06 432.805 337.62 412.876 317.18 412.876C296.767 412.876 276.326 432.805 255.886 432.805C235.447 432.805 215.032 412.876 194.593 412.876C174.154 412.876 153.713 432.805 133.299 432.805C112.861 432.805 92.4204 412.876 71.9808 412.876Z" fill="#C8EFFC"/>
<path d="M338.669 111.523C336.707 114.912 332.349 116.067 328.961 114.105C325.572 112.142 324.416 107.812 326.379 104.397L351.041 61.6882C353.004 58.2992 357.335 57.1426 360.723 59.1066C364.139 61.0696 365.295 65.4274 363.332 68.8155L338.669 111.523ZM263.015 87.4523C263.015 91.3793 259.814 94.5795 255.887 94.5795C251.96 94.5795 248.788 91.3793 248.788 87.4523V38.1272C248.788 34.2002 251.961 31 255.887 31C259.813 31 263.015 34.2002 263.015 38.1272V87.4523ZM185.422 104.396C187.386 107.811 186.23 112.141 182.813 114.104C179.425 116.067 175.095 114.911 173.132 111.522L148.469 68.8136C146.506 65.4255 147.662 61.0677 151.052 59.1047C154.44 57.1417 158.798 58.2973 160.76 61.6863L185.422 104.396ZM126.739 157.916C130.127 159.879 131.283 164.236 129.32 167.625C127.357 171.014 123 172.17 119.612 170.207L76.9031 145.544C73.515 143.581 72.3575 139.224 74.3205 135.835C76.2835 132.446 80.6413 131.291 84.0294 133.254L126.739 157.916ZM53.3146 247.798C49.3876 247.798 46.2148 244.624 46.2148 240.698C46.2148 236.745 49.3885 233.571 53.3146 233.571H102.667C106.594 233.571 109.768 236.745 109.768 240.698C109.768 244.624 106.593 247.798 102.667 247.798H53.3146ZM409.134 247.798C405.208 247.798 402.007 244.624 402.007 240.698C402.007 236.745 405.208 233.571 409.134 233.571H458.459C462.387 233.571 465.587 236.745 465.587 240.698C465.587 244.624 462.387 247.798 458.459 247.798H409.134ZM392.164 170.207C388.775 172.17 384.445 171.014 382.482 167.625C380.519 164.236 381.674 159.879 385.064 157.916L427.773 133.254C431.162 131.291 435.492 132.446 437.455 135.835C439.446 139.224 438.262 143.581 434.872 145.544L392.164 170.207Z" fill="#FCBF66"/>
<path fill-rule="evenodd" clip-rule="evenodd" d="M133.3 321.811C112.861 321.811 92.4204 341.74 71.9808 341.74C52.3193 341.74 32.6606 323.29 13 321.892V345.612C32.6606 346.984 52.3193 365.434 71.9808 365.434C92.4204 365.434 112.861 345.531 133.3 345.531C153.714 345.531 174.155 365.434 194.594 365.434C202.556 365.434 210.489 362.422 218.451 358.737C230.93 352.955 243.41 345.532 255.888 345.532C268.367 345.532 280.847 352.956 293.325 358.737C301.287 362.422 309.248 365.434 317.182 365.434C337.622 365.434 358.062 345.531 378.502 345.531C398.916 345.531 419.356 365.434 439.796 365.434C459.456 365.434 479.116 346.984 498.777 345.612V321.892C479.116 323.29 459.456 341.74 439.796 341.74C419.356 341.74 398.916 321.811 378.502 321.811C362.633 321.811 346.793 333.779 330.953 339.159C326.353 340.718 321.782 341.74 317.182 341.74C296.769 341.74 276.328 321.811 255.888 321.811C235.449 321.811 215.034 341.74 194.595 341.74C190.024 341.74 185.424 340.718 180.852 339.159C164.984 333.779 149.142 321.811 133.3 321.811Z" fill="#52CEF0"/>
<path fill-rule="evenodd" clip-rule="evenodd" d="M71.9808 389.154C52.3193 389.154 32.6606 407.604 13 409.003V432.723C32.6606 431.325 52.3193 412.875 71.9808 412.875C92.4204 412.875 112.861 432.804 133.3 432.804C153.714 432.804 174.155 412.875 194.594 412.875C215.034 412.875 235.448 432.804 255.887 432.804C276.327 432.804 296.768 412.875 317.181 412.875C337.621 412.875 358.061 432.804 378.501 432.804C398.915 432.804 419.355 412.875 439.795 412.875C459.455 412.875 479.115 431.325 498.776 432.723V409.003C479.115 407.604 459.455 389.154 439.795 389.154C419.355 389.154 398.915 409.084 378.501 409.084C358.061 409.084 337.621 389.154 317.181 389.154C296.768 389.154 276.327 409.084 255.887 409.084C235.448 409.084 215.033 389.154 194.594 389.154C174.155 389.154 153.714 409.084 133.3 409.084C112.861 409.084 92.4204 389.154 71.9808 389.154Z" fill="#8BDEF5"/>
</svg>
