<svg width="512" height="512" viewBox="0 0 512 512" fill="none" xmlns="http://www.w3.org/2000/svg">
<path d="M428.984 250.624C415.416 185.184 357.456 136 288 136C241.04 136 199.456 158.584 173.168 193.368C168.92 192.48 164.512 192 160 192C132.864 192 109.72 208.92 100.416 232.768C52.872 238.496 16 278.912 16 328C16 381.016 58.984 424 112 424H408C456.6 424 496 384.6 496 336C496 294.648 467.432 260.048 428.984 250.624Z" fill="#6E83B7"/>
<path d="M345.592 298.432C268.264 298.432 205.568 235.744 205.568 158.408C205.568 142.112 208.496 126.544 213.608 112C159.128 131.168 120 182.944 120 243.976C120 321.312 182.688 384 260.024 384C321.064 384 372.84 344.872 392 290.392C377.456 295.504 361.88 298.432 345.592 298.432Z" fill="#FFE352"/>
<path d="M268.72 153.576L240 144L268.72 134.424C277.08 131.64 283.64 125.08 286.432 116.712L296 88L305.576 116.72C308.36 125.08 314.92 131.64 323.288 134.432L352 144L323.28 153.576C314.92 156.36 308.36 162.92 305.568 171.288L296 200L286.424 171.28C283.64 162.92 277.08 156.36 268.72 153.576Z" fill="#FFE352"/>
<path d="M360.408 245.472L344 240L360.408 234.528C365.184 232.936 368.936 229.184 370.528 224.408L376 208L381.472 224.408C383.064 229.184 386.816 232.936 391.592 234.528L408 240L391.592 245.472C386.816 247.064 383.064 250.816 381.472 255.592L376 272L370.528 255.592C368.936 250.808 365.192 247.064 360.408 245.472Z" fill="#FFE352"/>
<path d="M84.304 332.104L72 328L84.304 323.896C87.888 322.704 90.696 319.888 91.896 316.304L96 304L100.104 316.304C101.296 319.888 104.112 322.696 107.696 323.896L120 328L107.696 332.104C104.112 333.296 101.304 336.112 100.104 339.696L96 352L91.896 339.696C90.704 336.112 87.888 333.296 84.304 332.104Z" fill="#FFE352"/>
<path d="M316.304 428.104L304 424L316.304 419.896C319.888 418.704 322.696 415.888 323.896 412.304L328 400L332.104 412.304C333.296 415.888 336.112 418.696 339.696 419.896L352 424L339.696 428.104C336.112 429.296 333.304 432.112 332.104 435.696L328 448L323.896 435.696C322.704 432.112 319.888 429.296 316.304 428.104Z" fill="#FFE352"/>
<path d="M116.304 116.104L104 112L116.304 107.896C119.888 106.704 122.696 103.888 123.896 100.304L128 88L132.104 100.304C133.296 103.888 136.112 106.696 139.696 107.896L152 112L139.696 116.104C136.112 117.296 133.304 120.112 132.104 123.696L128 136L123.896 123.696C122.704 120.112 119.888 117.296 116.304 116.104Z" fill="#FFE352"/>
<path d="M396.304 92.104L384 88L396.304 83.896C399.888 82.704 402.696 79.888 403.896 76.304L408 64L412.104 76.304C413.296 79.888 416.112 82.696 419.696 83.896L432 88L419.696 92.104C416.112 93.296 413.304 96.112 412.104 99.696L408 112L403.896 99.696C402.704 96.112 399.888 93.296 396.304 92.104Z" fill="#FFE352"/>
</svg>
