<svg width="512" height="512" viewBox="0 0 512 512" fill="none" xmlns="http://www.w3.org/2000/svg">
<path d="M256.003 414.799C340.811 414.799 409.561 343.924 409.561 256.494C409.561 169.064 340.811 98.1879 256.003 98.1879C171.195 98.1879 102.445 169.064 102.445 256.494C102.445 343.924 171.195 414.799 256.003 414.799Z" fill="url(#paint0_linear)"/>
<path d="M436.896 98.2477C434.475 87.6671 428.632 78.2512 420.329 71.5494C412.026 64.8476 401.758 61.2591 391.213 61.3744C380.669 61.4897 370.477 65.3018 362.313 72.1836C354.15 79.0654 348.503 88.6068 346.3 99.2381C335.079 101.702 325.14 108.362 318.401 117.934C311.662 127.505 308.599 139.311 309.803 151.073C311.008 162.834 316.394 173.72 324.924 181.63C333.453 189.54 344.522 193.913 355.994 193.908H434.559C446.672 193.912 458.307 189.036 466.981 180.319C475.655 171.603 480.68 159.737 480.985 147.253C481.29 134.769 476.85 122.657 468.613 113.502C460.376 104.346 448.994 98.8719 436.896 98.2477Z" fill="url(#paint1_linear)"/>
<path d="M158.349 319.139C155.928 308.559 150.085 299.143 141.782 292.441C133.48 285.739 123.211 282.151 112.667 282.266C102.122 282.381 91.9299 286.194 83.7667 293.075C75.6035 299.957 69.9558 309.499 67.7528 320.13C56.5319 322.594 46.5935 329.254 39.8542 338.826C33.1149 348.397 30.0522 360.202 31.2567 371.964C32.4612 383.726 37.8476 394.612 46.377 402.522C54.9065 410.431 65.9749 414.805 77.4475 414.799H156.012C168.125 414.804 179.76 409.928 188.434 401.211C197.108 392.495 202.133 380.628 202.439 368.145C202.744 355.661 198.304 343.549 190.066 334.393C181.829 325.238 170.447 319.764 158.349 319.139Z" fill="url(#paint2_linear)"/>
<path d="M256.003 76.0987C253.162 76.0987 250.437 74.9351 248.428 72.8639C246.419 70.7926 245.29 67.9834 245.29 65.0541V42.0446C245.29 39.1154 246.419 36.3061 248.428 34.2349C250.437 32.1636 253.162 31 256.003 31C258.844 31 261.569 32.1636 263.579 34.2349C265.588 36.3061 266.716 39.1154 266.716 42.0446V65.0541C266.716 67.9834 265.588 70.7926 263.579 72.8639C261.569 74.9351 258.844 76.0987 256.003 76.0987Z" fill="#FAC960"/>
<path d="M163.164 101.749C161.282 101.75 159.433 101.24 157.803 100.271C156.173 99.3015 154.82 97.9066 153.879 96.2266L142.719 76.2994C141.321 73.764 140.952 70.7614 141.694 67.9467C142.435 65.1321 144.226 62.734 146.676 61.2757C149.126 59.8174 152.036 59.4173 154.771 60.1628C157.506 60.9083 159.844 62.7387 161.275 65.2548L172.435 85.182C173.374 86.8602 173.869 88.7638 173.87 90.7017C173.87 92.6395 173.376 94.5434 172.437 96.2221C171.498 97.9007 170.147 99.2952 168.52 100.265C166.892 101.235 165.046 101.747 163.167 101.749H163.164Z" fill="#FAC960"/>
<path d="M95.1735 171.819C93.2961 171.819 91.4519 171.307 89.8276 170.337L70.498 158.832C69.2698 158.112 68.1918 157.149 67.3262 155.998C66.4605 154.846 65.8243 153.53 65.4541 152.124C65.0839 150.719 64.9871 149.252 65.1692 147.807C65.3513 146.363 65.8088 144.97 66.5152 143.708C67.2217 142.447 68.1632 141.342 69.2855 140.457C70.4079 139.572 71.6889 138.925 73.0548 138.553C74.4208 138.181 75.8447 138.091 77.2445 138.288C78.6444 138.485 79.9925 138.966 81.2114 139.703L100.541 151.207C102.585 152.423 104.182 154.301 105.085 156.548C105.988 158.796 106.146 161.288 105.534 163.638C104.922 165.987 103.575 168.063 101.701 169.542C99.828 171.021 97.5333 171.822 95.1735 171.819Z" fill="#FAC960"/>
<path d="M70.3054 267.538H47.9859C45.1446 267.538 42.4196 266.375 40.4104 264.303C38.4013 262.232 37.2726 259.423 37.2726 256.494C37.2726 253.564 38.4013 250.755 40.4104 248.684C42.4196 246.613 45.1446 245.449 47.9859 245.449H70.3054C73.1467 245.449 75.8717 246.613 77.8808 248.684C79.89 250.755 81.0187 253.564 81.0187 256.494C81.0187 259.423 79.89 262.232 77.8808 264.303C75.8717 266.375 73.1467 267.538 70.3054 267.538Z" fill="#FAC960"/>
<path d="M256.003 481.987C253.162 481.987 250.437 480.824 248.428 478.752C246.419 476.681 245.29 473.872 245.29 470.943V447.933C245.29 445.004 246.419 442.195 248.428 440.123C250.437 438.052 253.162 436.889 256.003 436.889C258.844 436.889 261.569 438.052 263.579 440.123C265.588 442.195 266.716 445.004 266.716 447.933V470.943C266.716 473.872 265.588 476.681 263.579 478.752C261.569 480.824 258.844 481.987 256.003 481.987Z" fill="#FAC960"/>
<path d="M360.021 453.259C358.14 453.26 356.291 452.75 354.661 451.781C353.031 450.811 351.677 449.416 350.737 447.736L339.577 427.809C338.862 426.552 338.396 425.163 338.204 423.72C338.013 422.276 338.1 420.808 338.462 419.4C338.823 417.992 339.45 416.671 340.309 415.514C341.167 414.357 342.239 413.387 343.462 412.658C344.686 411.93 346.037 411.459 347.438 411.271C348.839 411.083 350.263 411.183 351.626 411.565C352.99 411.946 354.266 412.602 355.383 413.494C356.5 414.387 357.434 415.498 358.132 416.764L369.292 436.692C370.232 438.37 370.727 440.273 370.727 442.211C370.728 444.149 370.234 446.053 369.295 447.732C368.355 449.41 367.004 450.805 365.377 451.775C363.75 452.745 361.904 453.257 360.024 453.259H360.021Z" fill="#FAC960"/>
<path d="M436.141 374.763C434.263 374.763 432.419 374.252 430.795 373.281L411.465 361.776C409.025 360.301 407.249 357.891 406.526 355.071C405.803 352.252 406.191 349.252 407.605 346.726C409.02 344.2 411.346 342.354 414.076 341.589C416.807 340.825 419.719 341.205 422.179 342.647L441.508 354.152C443.552 355.368 445.149 357.245 446.052 359.493C446.955 361.74 447.113 364.232 446.501 366.582C445.889 368.931 444.542 371.007 442.669 372.486C440.795 373.966 438.5 374.766 436.141 374.763Z" fill="#FAC960"/>
<path d="M464.02 267.538H441.701C438.86 267.538 436.135 266.375 434.125 264.303C432.116 262.232 430.988 259.423 430.988 256.494C430.988 253.564 432.116 250.755 434.125 248.684C436.135 246.613 438.86 245.449 441.701 245.449H464.02C466.862 245.449 469.587 246.613 471.596 248.684C473.605 250.755 474.734 253.564 474.734 256.494C474.734 259.423 473.605 262.232 471.596 264.303C469.587 266.375 466.862 267.538 464.02 267.538Z" fill="#FAC960"/>
<defs>
<linearGradient id="paint0_linear" x1="147.473" y1="368.38" x2="371.141" y2="151.419" gradientUnits="userSpaceOnUse">
<stop offset="0.015" stop-color="#F9CD55"/>
<stop offset="1" stop-color="#FDBC8C"/>
</linearGradient>
<linearGradient id="paint1_linear" x1="342.823" y1="200.122" x2="450.922" y2="95.2658" gradientUnits="userSpaceOnUse">
<stop offset="0.015" stop-color="#B7BFD8"/>
<stop offset="1" stop-color="#E4F2EE"/>
</linearGradient>
<linearGradient id="paint2_linear" x1="7102.93" y1="57902.5" x2="22174.3" y2="38405.8" gradientUnits="userSpaceOnUse">
<stop offset="0.015" stop-color="#B7BFD8"/>
<stop offset="1" stop-color="#E4F2EE"/>
</linearGradient>
</defs>
</svg>
