<svg width="512" height="512" viewBox="0 0 512 512" fill="none" xmlns="http://www.w3.org/2000/svg">
<g clip-path="url(#clip0)">
<path d="M256 10C256 10 263.706 67.056 303.752 77.787C343.798 88.518 379 42.958 379 42.958C379 42.958 357.145 96.223 386.461 125.539C415.777 154.855 469.042 133 469.042 133C469.042 133 423.483 168.202 434.213 208.248C444.943 248.294 502 256 502 256C502 256 444.944 263.706 434.213 303.752C423.482 343.798 469.042 379 469.042 379C469.042 379 415.777 357.145 386.461 386.461C357.145 415.777 379 469.042 379 469.042C379 469.042 343.798 423.483 303.752 434.213C263.706 444.943 256 502 256 502C256 502 248.294 444.944 208.248 434.213C168.202 423.482 133 469.042 133 469.042C133 469.042 154.855 415.777 125.539 386.461C96.223 357.145 42.958 379 42.958 379C42.958 379 88.517 343.798 77.787 303.752C67.057 263.706 10 256 10 256C10 256 67.056 248.294 77.787 208.248C88.518 168.202 42.958 133 42.958 133C42.958 133 96.223 154.855 125.539 125.539C154.855 96.223 133 42.958 133 42.958C133 42.958 168.202 88.517 208.248 77.787C248.294 67.057 256 10 256 10Z" fill="white"/>
<path d="M503.345 246.092C502.84 246.023 452.72 238.716 443.863 205.66C435.006 172.603 474.758 141.216 475.147 140.913C479.108 137.852 480.196 132.335 477.693 128C475.191 123.666 469.869 121.85 465.237 123.748C464.766 123.942 417.849 142.795 393.523 118.468C369.324 94.269 388.056 47.211 388.242 46.754C390.142 42.123 388.325 36.801 383.991 34.298C379.656 31.795 374.139 32.883 371.078 36.844C370.767 37.247 339.562 77.023 306.331 68.128C273.274 59.271 265.968 9.15 265.898 8.646C265.222 3.693 260.991 0 255.991 0C250.986 0 246.751 3.701 246.081 8.661C246.013 9.166 238.882 59.224 205.651 68.128C172.594 76.985 141.208 37.233 140.904 36.844C137.843 32.883 132.326 31.794 127.991 34.298C123.656 36.801 121.839 42.123 123.74 46.754C123.933 47.225 142.786 94.141 118.459 118.468C94.259 142.667 47.202 123.934 46.745 123.748C42.119 121.85 36.81 123.666 34.304 127.991C31.798 132.316 32.877 137.833 36.823 140.903C37.225 141.216 76.977 172.603 68.12 205.66C59.261 238.716 9.14101 246.022 8.65301 246.09C3.69801 246.759 0.00801297 250.986 1.29726e-05 255.985C-0.00798703 260.985 3.68501 265.223 8.63701 265.909C9.14201 265.978 59.262 273.285 68.119 306.341C76.976 339.398 37.224 370.785 36.835 371.088C32.874 374.149 31.786 379.666 34.289 384.001C36.791 388.336 42.114 390.15 46.745 388.253C47.216 388.059 94.134 369.206 118.459 393.533C142.658 417.732 123.926 464.79 123.74 465.247C121.84 469.878 123.657 475.2 127.991 477.703C132.326 480.208 137.844 479.119 140.904 475.157C141.215 474.754 172.419 434.974 205.651 443.873C238.708 452.73 246.014 502.851 246.081 503.34C246.751 508.3 250.986 512.001 255.991 512.001C260.996 512.001 265.231 508.3 265.901 503.34C265.969 502.835 273.1 452.777 306.331 443.873C339.385 435.016 370.775 474.768 371.078 475.157C374.139 479.117 379.656 480.207 383.991 477.703C388.326 475.2 390.143 469.878 388.242 465.247C388.049 464.776 369.196 417.86 393.523 393.533C417.722 369.332 464.779 388.066 465.237 388.253C469.862 390.149 475.171 388.334 477.678 384.01C480.185 379.685 479.105 374.168 475.159 371.098C474.757 370.785 435.005 339.398 443.862 306.341C452.719 273.285 502.839 265.979 503.328 265.911C508.283 265.242 511.973 261.015 511.981 256.016C511.991 251.016 508.298 246.777 503.345 246.092ZM424.545 301.164C418.251 324.654 427.877 346.116 439.07 361.701C419.979 359.798 396.575 362.196 379.381 379.389C362.185 396.585 359.791 419.986 361.692 439.078C346.108 427.887 324.644 418.255 301.155 424.553C277.665 430.847 263.892 449.915 255.991 467.401C248.091 449.916 234.317 430.847 210.827 424.553C205.672 423.172 200.622 422.558 195.703 422.558C178.206 422.558 162.454 430.343 150.289 439.079C152.19 419.986 149.796 396.585 132.6 379.389C115.404 362.194 92.003 359.799 72.911 361.701C84.104 346.116 93.731 324.654 87.436 301.164C81.141 277.674 62.075 263.9 44.589 256C62.075 248.1 81.142 234.326 87.437 210.836C93.732 187.346 84.105 165.884 72.912 150.299C92.004 152.202 115.408 149.804 132.601 132.611C149.797 115.415 152.191 92.014 150.29 72.922C165.874 84.112 187.336 93.741 210.827 87.447C234.318 81.152 248.091 62.084 255.991 44.599C263.891 62.084 277.665 81.153 301.155 87.447C306.31 88.828 311.36 89.442 316.279 89.442C333.776 89.44 349.528 81.657 361.693 72.921C359.792 92.014 362.186 115.415 379.382 132.611C396.578 149.807 419.98 152.203 439.071 150.299C427.878 165.884 418.251 187.346 424.546 210.836C430.841 234.326 449.907 248.1 467.393 256C449.907 263.9 430.84 277.674 424.545 301.164Z" fill="white"/>
<path d="M256 116C178.804 116 116 178.641 116 255.636C116 315.723 154.408 368.942 211.572 388.066C216.459 389.704 221.75 387.076 223.389 382.2C225.028 377.327 222.395 372.05 217.508 370.415C167.958 353.838 134.667 307.711 134.667 255.636C134.667 188.906 189.097 134.618 256 134.618C322.903 134.618 377.333 188.906 377.333 255.636C377.333 307.711 344.042 353.838 294.492 370.415C289.605 372.05 286.972 377.327 288.611 382.2C289.92 386.094 293.557 388.552 297.458 388.552C298.441 388.552 299.443 388.396 300.428 388.066C357.592 368.942 396 315.723 396 255.636C396 178.641 333.196 116 256 116Z" fill="#1F1A24"/>
<path d="M256 396C333.196 396 396 333.359 396 256.364C396 196.277 357.592 143.058 300.428 123.934C295.541 122.296 290.25 124.924 288.611 129.8C286.972 134.673 289.605 139.95 294.492 141.585C344.042 158.162 377.333 204.289 377.333 256.364C377.333 323.094 322.903 377.382 256 377.382C189.097 377.382 134.667 323.094 134.667 256.364C134.667 204.289 167.958 158.162 217.508 141.585C222.395 139.95 225.028 134.673 223.389 129.8C222.08 125.906 218.443 123.448 214.542 123.448C213.559 123.448 212.557 123.604 211.572 123.934C154.408 143.058 116 196.277 116 256.364C116 333.359 178.804 396 256 396Z" fill="#1F1A24"/>
</g>
<defs>
<clipPath id="clip0">
<rect width="512" height="512" fill="white"/>
</clipPath>
</defs>
</svg>
