<svg width="900" height="112" viewBox="0 0 900 112" fill="none" xmlns="http://www.w3.org/2000/svg">
<path d="M0 11.3567L37.5 9.6708C75 7.93381 150 4.562 225 8.03598C300 11.51 375 21.9319 450 21.6765C525 21.421 600 10.4882 675 5.12396C750 -0.240273 825 -0.0359212 862.5 0.0151667L900 0.117349V112H862.5C825 112 750 112 675 112C600 112 525 112 450 112C375 112 300 112 225 112C150 112 75 112 37.5 112H0V11.3567Z" fill="#BFD9FF"/>
<path d="M0 27.7049L37.5 30.2593C75 32.8137 150 37.9225 225 39.4551C300 40.9877 375 38.9442 450 34.9594C525 30.9234 600 24.9972 675 22.1874C750 19.3775 825 19.6841 862.5 19.8884L900 20.0417V112H862.5C825 112 750 112 675 112C600 112 525 112 450 112C375 112 300 112 225 112C150 112 75 112 37.5 112H0V27.7049Z" fill="#A5CEFF"/>
<path d="M0 34.8572L37.5 38.0757C75 41.3453 150 47.7824 225 49.264C300 50.6945 375 47.1183 450 49.1618C525 51.2053 600 58.8685 675 62.8534C750 66.8893 825 67.1959 862.5 67.4002L900 67.5535V112H862.5C825 112 750 112 675 112C600 112 525 112 450 112C375 112 300 112 225 112C150 112 75 112 37.5 112H0V34.8572Z" fill="#87C3FF"/>
<path d="M0 85.9452L37.5 86.7115C75 87.4778 150 89.0105 225 85.5365C300 82.0114 375 73.5308 450 69.2394C525 64.9991 600 64.9991 675 67.0426C750 69.0862 825 73.1732 862.5 75.2167L900 77.2602V112H862.5C825 112 750 112 675 112C600 112 525 112 450 112C375 112 300 112 225 112C150 112 75 112 37.5 112H0V85.9452Z" fill="#60B9FF"/>
<path d="M0 108.424L37.5 107.658C75 106.891 150 105.359 225 102.293C300 99.228 375 94.6301 450 93.1997C525 91.7181 600 93.4551 675 94.9877C750 96.5204 825 97.8487 862.5 98.5639L900 99.228V112H862.5C825 112 750 112 675 112C600 112 525 112 450 112C375 112 300 112 225 112C150 112 75 112 37.5 112H0V108.424Z" fill="#0CAFFF"/>
</svg>
