<svg width="900" height="112" viewBox="0 0 900 112" fill="none" xmlns="http://www.w3.org/2000/svg">
<path d="M0 104.815L21.5 102.447C43 100.129 86 95.3918 128.8 93.0738C171.7 90.7054 214.3 90.7054 257.2 95.8957C300 101.136 343 111.517 385.8 110.61C428.7 109.703 471.3 97.4075 514.2 91.0581C557 84.6584 600 84.1544 642.8 90.2015C685.7 96.2485 728.3 108.846 771.2 111.467C814 114.037 857 106.68 878.5 102.951L900 99.272V0H878.5C857 0 814 0 771.2 0C728.3 0 685.7 0 642.8 0C600 0 557 0 514.2 0C471.3 0 428.7 0 385.8 0C343 0 300 0 257.2 0C214.3 0 171.7 0 128.8 0C86 0 43 0 21.5 0H0V104.815Z" fill="#BFD9FF"/>
<path d="M0 101.792L21.5 98.0122C43 94.2328 86 86.674 128.8 82.038C171.7 77.4523 214.3 75.739 257.2 78.0066C300 80.2743 343 86.5229 385.8 84.1544C428.7 81.786 471.3 70.9014 514.2 65.8622C557 60.823 600 61.6293 642.8 64.6528C685.7 67.6763 728.3 72.917 771.2 76.4949C814 80.1231 857 82.1388 878.5 83.1466L900 84.1544V0H878.5C857 0 814 0 771.2 0C728.3 0 685.7 0 642.8 0C600 0 557 0 514.2 0C471.3 0 428.7 0 385.8 0C343 0 300 0 257.2 0C214.3 0 171.7 0 128.8 0C86 0 43 0 21.5 0H0V101.792Z" fill="#A5CEFF"/>
<path d="M0 57.4467L21.5 58.3034C43 59.1097 86 60.823 128.8 60.2183C171.7 59.6136 214.3 56.7917 257.2 56.0358C300 55.2799 343 56.5901 385.8 55.5822C428.7 54.5744 471.3 51.2485 514.2 54.9272C557 58.6058 600 69.3896 642.8 69.0369C685.7 68.6841 728.3 57.2956 771.2 54.776C814 52.2564 857 58.6058 878.5 61.8308L900 65.0055V0H878.5C857 0 814 0 771.2 0C728.3 0 685.7 0 642.8 0C600 0 557 0 514.2 0C471.3 0 428.7 0 385.8 0C343 0 300 0 257.2 0C214.3 0 171.7 0 128.8 0C86 0 43 0 21.5 0H0V57.4467Z" fill="#87C3FF"/>
<path d="M0 37.29L21.5 39.4064C43 41.4725 86 45.7054 128.8 47.7715C171.7 49.888 214.3 49.888 257.2 48.1242C300 46.3605 343 42.8331 385.8 39.3057C428.7 35.7782 471.3 32.2508 514.2 32.5028C557 32.7547 600 36.7861 642.8 39.9608C685.7 43.1858 728.3 45.5039 771.2 44.748C814 43.9921 857 40.1623 878.5 38.197L900 36.2822V0H878.5C857 0 814 0 771.2 0C728.3 0 685.7 0 642.8 0C600 0 557 0 514.2 0C471.3 0 428.7 0 385.8 0C343 0 300 0 257.2 0C214.3 0 171.7 0 128.8 0C86 0 43 0 21.5 0H0V37.29Z" fill="#60B9FF"/>
<path d="M0 15.6215L21.5 18.7458C43 21.8197 86 28.0683 128.8 31.3941C171.7 34.7704 214.3 35.2743 257.2 31.7469C300 28.2195 343 20.6607 385.8 19.552C428.7 18.4938 471.3 23.8354 514.2 24.692C557 25.5487 600 21.8197 642.8 21.6685C685.7 21.5173 728.3 24.8432 771.2 26.355C814 27.8667 857 27.5644 878.5 27.3628L900 27.2116V0H878.5C857 0 814 0 771.2 0C728.3 0 685.7 0 642.8 0C600 0 557 0 514.2 0C471.3 0 428.7 0 385.8 0C343 0 300 0 257.2 0C214.3 0 171.7 0 128.8 0C86 0 43 0 21.5 0H0V15.6215Z" fill="#0CAFFF"/>
</svg>
