<svg width="811" height="304" viewBox="0 0 811 304" fill="none" xmlns="http://www.w3.org/2000/svg">
<path d="M326.654 56C329.968 56 332.654 53.3137 332.654 50C332.654 46.6863 329.968 44 326.654 44C323.34 44 320.654 46.6863 320.654 50C320.654 53.3137 323.34 56 326.654 56Z" fill="#0CAFFF"/>
<path d="M646.654 40C649.968 40 652.654 37.3137 652.654 34C652.654 30.6863 649.968 28 646.654 28C643.34 28 640.654 30.6863 640.654 34C640.654 37.3137 643.34 40 646.654 40Z" fill="#0CAFFF"/>
<path d="M181 16C184.314 16 187 13.3137 187 10C187 6.68629 184.314 4 181 4C177.686 4 175 6.68629 175 10C175 13.3137 177.686 16 181 16Z" fill="#0CAFFF"/>
</svg>
