<svg width="811" height="304" viewBox="0 0 811 304" fill="none" xmlns="http://www.w3.org/2000/svg">
<path d="M570.537 139.869C564.046 135.818 558.202 130.811 553.204 125.016C552.86 124.609 552.653 124.103 552.613 123.571C552.574 123.039 552.703 122.508 552.984 122.055L562.249 107.173C562.6 106.611 563.16 106.211 563.805 106.061C564.451 105.911 565.13 106.023 565.693 106.372L603.045 129.628C603.607 129.979 604.007 130.539 604.157 131.184C604.307 131.83 604.195 132.509 603.846 133.072L594.586 147.945C594.301 148.401 593.878 148.755 593.378 148.952C592.877 149.15 592.327 149.181 591.807 149.041C584.306 147.043 577.14 143.953 570.537 139.869V139.869Z" fill="#0CAFFF"/>
<path opacity="0.2" d="M603.421 132.807L601.873 135.295L577.247 129.798C576.788 129.694 576.38 129.431 576.094 129.057L561.252 109.721L562.674 107.437C562.955 106.988 563.403 106.669 563.919 106.549C564.435 106.429 564.978 106.518 565.429 106.797L602.781 130.053C603.23 130.334 603.549 130.782 603.669 131.298C603.789 131.814 603.7 132.357 603.421 132.807V132.807Z" fill="black"/>
<path d="M578.472 126.57C578.217 126.411 577.993 126.209 577.81 125.971L555.629 97.0769C555.316 96.6683 555.136 96.1729 555.114 95.6583C555.093 95.1437 555.231 94.6351 555.51 94.2019C555.788 93.7688 556.194 93.4323 556.671 93.2384C557.148 93.0445 557.674 93.0027 558.176 93.1187L591.215 100.759C591.748 100.884 592.225 101.179 592.576 101.599L616.666 130.659C616.999 131.061 617.198 131.556 617.235 132.076C617.272 132.596 617.146 133.115 616.874 133.56C616.602 134.005 616.197 134.353 615.717 134.557C615.237 134.76 614.706 134.808 614.197 134.695L579.248 126.888C578.973 126.826 578.711 126.719 578.472 126.57Z" fill="#0CAFFF"/>
<path d="M552.607 109.416L551.758 108.887L559.422 96.578L585.314 112.699L584.785 113.547L559.742 97.955L552.607 109.416Z" fill="#3F3D56"/>
<path d="M551.654 112C552.759 112 553.654 111.105 553.654 110C553.654 108.896 552.759 108 551.654 108C550.549 108 549.654 108.896 549.654 110C549.654 111.105 550.549 112 551.654 112Z" fill="#3F3D56"/>
</svg>
