<svg width="577" height="494" viewBox="0 0 577 494" fill="none" xmlns="http://www.w3.org/2000/svg">
<g clip-path="url(#clip0)">
<path d="M169.422 488.35C178.677 480.53 184.298 468.177 182.824 456.151C181.35 444.125 172.219 433.069 160.375 430.515C148.531 427.962 135.03 435.031 131.432 446.601C129.452 424.295 127.171 401.054 115.312 382.058C104.574 364.858 85.9745 352.551 65.8175 350.349C45.6604 348.147 24.4376 356.463 11.8664 372.373C-0.70481 388.283 -3.78281 411.412 5.02174 429.678C11.5077 443.133 23.4573 453.147 35.9774 461.294C76.4343 487.398 124.957 498.013 172.618 491.187" fill="#09FD04"/>
<path d="M31.7994 356.924C48.4314 370.471 63.6896 385.623 77.3532 402.159C98.7366 427.95 116.04 456.866 128.662 487.9C129.585 490.164 125.909 491.15 124.995 488.911C116.969 469.29 107.039 450.502 95.3483 432.818C77.1172 405.192 54.7815 380.507 29.111 359.613C27.213 358.067 29.917 355.391 31.7994 356.924V356.924Z" fill="#04BB00"/>
<path d="M175.814 488.35C166.56 480.53 160.938 468.177 162.412 456.151C163.887 444.125 173.017 433.069 184.861 430.515C196.705 427.962 210.207 435.031 213.804 446.601C215.784 424.295 218.065 401.054 229.924 382.058C240.663 364.858 259.262 352.551 279.419 350.349C299.576 348.147 320.799 356.463 333.37 372.373C345.941 388.283 349.019 411.412 340.214 429.678C333.728 443.133 321.779 453.147 309.259 461.294C268.802 487.398 220.279 498.013 172.618 491.187" fill="#09FD04"/>
<path d="M313.437 356.924C296.805 370.471 281.547 385.623 267.883 402.159C246.5 427.95 229.196 456.866 216.575 487.9C215.651 490.164 219.327 491.15 220.241 488.911C240.891 438.474 273.858 394.019 316.125 359.613C318.023 358.067 315.319 355.391 313.437 356.924V356.924Z" fill="#04BB00"/>
<path d="M203.277 222C220.398 222 234.277 208.121 234.277 191C234.277 173.879 220.398 160 203.277 160C186.156 160 172.277 173.879 172.277 191C172.277 208.121 186.156 222 203.277 222Z" fill="#F2F2F2"/>
<path d="M107.695 84.1377H321.277V95.823H134.961C124.006 95.823 113.159 97.9806 103.038 102.173C92.9172 106.365 83.7212 112.509 75.9751 120.256C68.229 128.002 62.0844 137.198 57.8922 147.319C53.7 157.439 51.5424 168.287 51.5424 179.241V312H28.1719C27.1388 312 26.1481 311.59 25.4177 310.859C24.6872 310.129 24.2768 309.138 24.2768 308.105V167.556C24.2768 156.601 26.4345 145.754 30.6266 135.633C34.8188 125.512 40.9634 116.316 48.7095 108.57C56.4557 100.824 65.6517 94.6796 75.7725 90.4875C85.8933 86.2953 96.7407 84.1377 107.695 84.1377V84.1377Z" fill="#F2F2F2"/>
<path d="M148.777 489V311.5H200.777V489C200.775 490.193 200.301 491.337 199.457 492.18C198.614 493.024 197.47 493.499 196.277 493.5H153.277C152.084 493.499 150.94 493.024 150.096 492.18C149.253 491.337 148.778 490.193 148.777 489Z" fill="#3F3D56"/>
<path d="M13.2768 308V163.666C13.3027 140.688 22.4419 118.66 38.6891 102.412C54.9364 86.1652 76.965 77.026 99.9421 77H320.277V313H18.2768C16.9512 312.998 15.6803 312.471 14.743 311.534C13.8056 310.597 13.2783 309.326 13.2768 308V308ZM318.277 79H99.9421C77.4952 79.0254 55.975 87.9537 40.1027 103.826C24.2304 119.698 15.3022 141.219 15.2768 163.666V308C15.2777 308.795 15.594 309.558 16.1564 310.12C16.7189 310.683 17.4814 310.999 18.2768 311H318.277V79Z" fill="#3F3D56"/>
<path d="M203.277 207C198.505 206.995 193.929 205.096 190.555 201.722C187.18 198.347 185.282 193.772 185.277 189V60C185.276 59.2046 184.96 58.4421 184.397 57.8796C183.835 57.3172 183.072 57.0009 182.277 57H112.277C110.951 56.9985 109.68 56.4712 108.743 55.5338C107.806 54.5965 107.278 53.3256 107.277 52V5C107.278 3.67439 107.806 2.40351 108.743 1.46616C109.68 0.528807 110.951 0.00153504 112.277 0H216.277C217.602 0.00151655 218.873 0.528787 219.811 1.46614C220.748 2.40349 221.275 3.67438 221.277 5V189C221.271 193.772 219.373 198.347 215.999 201.722C212.624 205.096 208.049 206.995 203.277 207Z" fill="#0CAFFF"/>
<path d="M328.277 75C343.362 74.9684 357.843 80.9308 368.532 91.5757C379.222 102.22 385.245 116.676 385.277 131.761V296.071H497.277C501.776 296.062 506.095 297.84 509.283 301.015C512.471 304.19 514.267 308.501 514.277 313H271.277V131.761C271.308 116.676 277.332 102.22 288.021 91.5757C298.711 80.9308 313.191 74.9684 328.277 75Z" fill="#3F3D56"/>
<path d="M203.277 196C207.143 196 210.277 192.866 210.277 189C210.277 185.134 207.143 182 203.277 182C199.411 182 196.277 185.134 196.277 189C196.277 192.866 199.411 196 203.277 196Z" fill="white"/>
</g>
<defs>
<clipPath id="clip0">
<rect width="576.499" height="493.5" fill="white"/>
</clipPath>
</defs>
</svg>
