<svg width="811" height="304" viewBox="0 0 811 304" fill="none" xmlns="http://www.w3.org/2000/svg">
<path d="M406.58 284.691C430.365 284.691 449.647 265.409 449.647 241.623C449.647 217.838 430.365 198.556 406.58 198.556C382.795 198.556 363.513 217.838 363.513 241.623C363.513 265.409 382.795 284.691 406.58 284.691Z" fill="#2F2E41"/>
<path d="M400.038 275.423H386.954V298.865H400.038V275.423Z" fill="#2F2E41"/>
<path d="M426.206 275.423H413.122V298.865H426.206V275.423Z" fill="#2F2E41"/>
<path d="M397.857 303.226C403.879 303.226 408.761 301.396 408.761 299.137C408.761 296.879 403.879 295.049 397.857 295.049C391.836 295.049 386.954 296.879 386.954 299.137C386.954 301.396 391.836 303.226 397.857 303.226Z" fill="#2F2E41"/>
<path d="M424.025 302.681C430.047 302.681 434.928 300.85 434.928 298.592C434.928 296.334 430.047 294.504 424.025 294.504C418.003 294.504 413.122 296.334 413.122 298.592C413.122 300.85 418.003 302.681 424.025 302.681Z" fill="#2F2E41"/>
<path d="M452.989 222.804C462.316 213.47 467.502 203.529 464.572 200.601C461.641 197.673 451.705 202.866 442.378 212.201C433.051 221.535 427.865 231.475 430.796 234.403C433.726 237.331 443.662 232.138 452.989 222.804Z" fill="#2F2E41"/>
<path d="M368.139 262.78C375.665 251.942 379.008 241.24 375.605 238.877C372.203 236.514 363.343 243.386 355.817 254.224C348.291 265.063 344.949 275.765 348.351 278.128C351.754 280.49 360.613 273.619 368.139 262.78Z" fill="#2F2E41"/>
<path d="M404.768 250.239C412.897 250.239 419.487 243.649 419.487 235.52C419.487 227.391 412.897 220.801 404.768 220.801C396.639 220.801 390.049 227.391 390.049 235.52C390.049 243.649 396.639 250.239 404.768 250.239Z" fill="white"/>
<path d="M409.768 235.427C412.478 235.427 414.674 233.23 414.674 230.52C414.674 227.81 412.478 225.614 409.768 225.614C407.058 225.614 404.862 227.81 404.862 230.52C404.862 233.23 407.058 235.427 409.768 235.427Z" fill="#3F3D56"/>
<path d="M452.313 235.719C452.313 243.779 445.779 250.313 437.719 250.313C429.659 250.313 423.125 243.779 423.125 235.719C423.125 227.659 429.659 221.125 437.719 221.125C445.779 221.125 452.313 227.659 452.313 235.719Z" fill="white" stroke="black" stroke-width="0.25"/>
<path d="M442.719 235.626C445.429 235.626 447.625 233.429 447.625 230.719C447.625 228.009 445.429 225.813 442.719 225.813C440.009 225.813 437.812 228.009 437.812 230.719C437.812 233.429 440.009 235.626 442.719 235.626Z" fill="#3F3D56"/>
<path d="M422.415 262.743C423.859 267.944 418.6 272.928 410.668 273.875C402.736 274.822 395.135 271.373 393.691 266.172L393.686 266.153C392.25 260.951 398.384 259.11 406.317 258.168C414.25 257.227 420.979 257.541 422.415 262.743Z" fill="white"/>
<path d="M391.511 216.276C384.408 219.124 376.917 220.884 369.289 221.496C368.757 221.534 368.227 221.402 367.774 221.12C367.321 220.838 366.97 220.42 366.769 219.926L360.229 203.661C359.982 203.046 359.99 202.358 360.25 201.748C360.51 201.138 361.001 200.657 361.616 200.409L402.439 183.994C403.054 183.747 403.742 183.755 404.352 184.015C404.962 184.275 405.443 184.766 405.691 185.381L412.227 201.636C412.428 202.135 412.463 202.685 412.327 203.206C412.191 203.726 411.892 204.189 411.472 204.526C405.43 209.4 398.705 213.359 391.511 216.276V216.276Z" fill="#0CAFFF"/>
<path opacity="0.2" d="M405.228 185.567L406.321 188.286L387.345 204.916C386.989 205.224 386.537 205.398 386.066 205.408L361.696 205.97L360.693 203.474C360.497 202.982 360.503 202.432 360.711 201.945C360.919 201.457 361.311 201.072 361.802 200.873L402.626 184.458C403.118 184.262 403.668 184.268 404.156 184.476C404.643 184.684 405.028 185.076 405.228 185.567V185.567Z" fill="black"/>
<path d="M385.462 202.02C385.184 202.133 384.888 202.194 384.588 202.201L348.172 203.043C347.657 203.055 347.151 202.907 346.723 202.62C346.295 202.334 345.966 201.922 345.781 201.441C345.596 200.961 345.564 200.435 345.689 199.935C345.814 199.436 346.091 198.987 346.481 198.65L372.155 176.496C372.57 176.14 373.09 175.928 373.636 175.893L411.314 173.609C411.835 173.577 412.352 173.709 412.794 173.986C413.236 174.263 413.58 174.672 413.778 175.154C413.976 175.636 414.019 176.168 413.899 176.676C413.78 177.184 413.505 177.641 413.113 177.985L386.177 201.582C385.965 201.767 385.724 201.916 385.462 202.02V202.02Z" fill="#0CAFFF"/>
<path d="M356.346 212.767L355.418 213.14L350.009 199.687L378.307 188.308L378.68 189.236L351.309 200.242L356.346 212.767Z" fill="#3F3D56"/>
<path d="M356.255 215.881C357.359 215.881 358.255 214.986 358.255 213.881C358.255 212.777 357.359 211.881 356.255 211.881C355.15 211.881 354.255 212.777 354.255 213.881C354.255 214.986 355.15 215.881 356.255 215.881Z" fill="#3F3D56"/>
</svg>
