<svg width="811" height="304" viewBox="0 0 811 304" fill="none" xmlns="http://www.w3.org/2000/svg">
<path d="M674.727 235.691C698.513 235.691 717.795 216.409 717.795 192.623C717.795 168.838 698.513 149.556 674.727 149.556C650.942 149.556 631.66 168.838 631.66 192.623C631.66 216.409 650.942 235.691 674.727 235.691Z" fill="#2F2E41"/>
<path d="M704.584 214.954L693.42 221.777L705.645 241.779L716.809 234.956L704.584 214.954Z" fill="#2F2E41"/>
<path d="M682.256 228.6L671.093 235.423L683.317 255.425L694.481 248.602L682.256 228.6Z" fill="#2F2E41"/>
<path d="M709.779 244.363C714.918 241.223 718.128 237.116 716.951 235.189C715.773 233.262 710.653 234.246 705.515 237.386C700.377 240.526 697.167 244.633 698.344 246.56C699.522 248.487 704.641 247.503 709.779 244.363Z" fill="#2F2E41"/>
<path d="M687.167 257.544C692.305 254.404 695.516 250.296 694.339 248.369C693.161 246.443 688.041 247.426 682.903 250.566C677.765 253.707 674.554 257.814 675.732 259.741C676.91 261.668 682.029 260.684 687.167 257.544Z" fill="#2F2E41"/>
<path d="M650.512 185.403C653.442 182.475 648.257 172.535 638.93 163.201C629.603 153.867 619.666 148.673 616.736 151.601C613.806 154.529 618.991 164.47 628.318 173.804C637.645 183.138 647.582 188.331 650.512 185.403Z" fill="#2F2E41"/>
<path d="M732.956 229.127C736.359 226.765 733.016 216.063 725.49 205.224C717.964 194.386 709.105 187.514 705.702 189.877C702.3 192.24 705.642 202.941 713.168 213.78C720.694 224.619 729.554 231.49 732.956 229.127Z" fill="#2F2E41"/>
<path d="M661.54 195.239C669.669 195.239 676.259 188.649 676.259 180.52C676.259 172.391 669.669 165.801 661.54 165.801C653.41 165.801 646.82 172.391 646.82 180.52C646.82 188.649 653.41 195.239 661.54 195.239Z" fill="white"/>
<path d="M656.54 180.427C659.249 180.427 661.446 178.23 661.446 175.52C661.446 172.81 659.249 170.614 656.54 170.614C653.83 170.614 651.633 172.81 651.633 175.52C651.633 178.23 653.83 180.427 656.54 180.427Z" fill="#3F3D56"/>
<path d="M644.313 180.719C644.313 188.779 637.779 195.313 629.719 195.313C621.659 195.313 615.125 188.779 615.125 180.719C615.125 172.659 621.659 166.125 629.719 166.125C637.779 166.125 644.313 172.659 644.313 180.719Z" fill="white" stroke="black" stroke-width="0.25"/>
<path d="M624.719 180.626C627.429 180.626 629.626 178.429 629.626 175.719C629.626 173.009 627.429 170.813 624.719 170.813C622.01 170.813 619.813 173.009 619.813 175.719C619.813 178.429 622.01 180.626 624.719 180.626Z" fill="#3F3D56"/>
<path d="M642.585 205.073C639.794 209.646 643.513 215.833 650.892 218.891C658.27 221.95 666.514 220.722 669.305 216.149L669.315 216.133C672.099 211.557 666.692 208.133 659.311 205.079C651.929 202.025 645.369 200.497 642.585 205.073Z" fill="white"/>
<path d="M660.277 138.547C664.122 123.06 681.097 113.946 698.192 118.191C715.286 122.436 726.026 138.431 722.18 153.918C718.335 169.405 705.576 169.455 688.482 165.211C671.388 160.966 656.431 154.034 660.277 138.547Z" fill="#0CAFFF"/>
</svg>
