<svg width="811" height="304" viewBox="0 0 811 304" fill="none" xmlns="http://www.w3.org/2000/svg">
<path d="M157.58 284.691C181.365 284.691 200.647 265.409 200.647 241.623C200.647 217.838 181.365 198.556 157.58 198.556C133.795 198.556 114.513 217.838 114.513 241.623C114.513 265.409 133.795 284.691 157.58 284.691Z" fill="#2F2E41"/>
<path d="M151.038 275.423H137.954V298.865H151.038V275.423Z" fill="#2F2E41"/>
<path d="M177.206 275.423H164.122V298.865H177.206V275.423Z" fill="#2F2E41"/>
<path d="M148.857 303.226C154.879 303.226 159.761 301.395 159.761 299.137C159.761 296.879 154.879 295.049 148.857 295.049C142.836 295.049 137.954 296.879 137.954 299.137C137.954 301.395 142.836 303.226 148.857 303.226Z" fill="#2F2E41"/>
<path d="M175.025 302.681C181.047 302.681 185.928 300.85 185.928 298.592C185.928 296.334 181.047 294.504 175.025 294.504C169.003 294.504 164.122 296.334 164.122 298.592C164.122 300.85 169.003 302.681 175.025 302.681Z" fill="#2F2E41"/>
<path d="M203.989 222.804C213.316 213.47 218.502 203.529 215.572 200.601C212.641 197.673 202.705 202.866 193.378 212.201C184.051 221.535 178.865 231.475 181.796 234.403C184.726 237.331 194.662 232.138 203.989 222.804Z" fill="#2F2E41"/>
<path d="M122.866 237.403C125.796 234.475 120.611 224.535 111.284 215.201C101.957 205.866 92.0204 200.673 89.0902 203.601C86.1599 206.529 91.3454 216.47 100.672 225.804C109.999 235.138 119.936 240.331 122.866 237.403Z" fill="#2F2E41"/>
<path d="M155.768 250.239C163.897 250.239 170.487 243.649 170.487 235.52C170.487 227.391 163.897 220.801 155.768 220.801C147.639 220.801 141.049 227.391 141.049 235.52C141.049 243.649 147.639 250.239 155.768 250.239Z" fill="white"/>
<path d="M155.768 240.427C158.478 240.427 160.674 238.23 160.674 235.52C160.674 232.81 158.478 230.614 155.768 230.614C153.058 230.614 150.862 232.81 150.862 235.52C150.862 238.23 153.058 240.427 155.768 240.427Z" fill="#3F3D56"/>
<path d="M204.313 235.719C204.313 243.779 197.779 250.313 189.719 250.313C181.659 250.313 175.125 243.779 175.125 235.719C175.125 227.659 181.659 221.125 189.719 221.125C197.779 221.125 204.313 227.659 204.313 235.719Z" fill="white" stroke="black" stroke-width="0.25"/>
<path d="M189.719 240.626C192.429 240.626 194.625 238.429 194.625 235.719C194.625 233.009 192.429 230.813 189.719 230.813C187.009 230.813 184.812 233.009 184.812 235.719C184.812 238.429 187.009 240.626 189.719 240.626Z" fill="#3F3D56"/>
<path d="M167.452 262.743C167.907 265.241 167.351 267.817 165.906 269.904C164.462 271.992 162.247 273.42 159.749 273.875C157.251 274.33 154.675 273.773 152.588 272.329C150.5 270.884 149.072 268.669 148.617 266.172V266.172L148.614 266.153C147.672 260.951 151.694 259.11 156.896 258.168C162.098 257.227 166.511 257.541 167.452 262.743Z" fill="white"/>
<path d="M156.471 213.375C148.819 213.367 141.212 212.205 133.906 209.928C133.398 209.764 132.956 209.444 132.641 209.013C132.326 208.583 132.156 208.064 132.154 207.53V190C132.155 189.337 132.418 188.702 132.887 188.233C133.356 187.764 133.991 187.501 134.654 187.5H178.654C179.317 187.501 179.952 187.764 180.421 188.233C180.889 188.702 181.153 189.337 181.154 190V207.52C181.154 208.058 180.981 208.582 180.661 209.014C180.341 209.446 179.89 209.763 179.375 209.919C171.951 212.188 164.234 213.352 156.471 213.375V213.375Z" fill="#0CAFFF"/>
<path opacity="0.2" d="M180.654 190V192.93L156.844 201.28C156.399 201.434 155.914 201.426 155.474 201.26L132.654 192.69V190C132.655 189.47 132.867 188.962 133.241 188.587C133.616 188.213 134.124 188.002 134.654 188H178.654C179.184 188.002 179.692 188.213 180.066 188.587C180.441 188.962 180.652 189.47 180.654 190Z" fill="black"/>
<path d="M156.178 197.892C155.877 197.892 155.58 197.838 155.299 197.733L121.198 184.928C120.716 184.747 120.301 184.422 120.011 183.996C119.721 183.57 119.569 183.066 119.577 182.551C119.585 182.036 119.751 181.536 120.054 181.119C120.356 180.702 120.78 180.389 121.267 180.222L153.353 169.246C153.871 169.07 154.433 169.068 154.952 169.239L190.762 181.176C191.257 181.341 191.688 181.656 191.994 182.078C192.301 182.5 192.468 183.007 192.472 183.528C192.476 184.05 192.317 184.559 192.017 184.986C191.717 185.412 191.291 185.734 190.799 185.907L157.004 197.752C156.738 197.844 156.459 197.892 156.178 197.892V197.892Z" fill="#0CAFFF"/>
<path d="M125.154 197H124.154V182.5H154.654V183.5H125.154V197Z" fill="#3F3D56"/>
<path d="M124.654 200C125.758 200 126.654 199.105 126.654 198C126.654 196.895 125.758 196 124.654 196C123.549 196 122.654 196.895 122.654 198C122.654 199.105 123.549 200 124.654 200Z" fill="#3F3D56"/>
</svg>
