<svg width="811" height="304" viewBox="0 0 811 304" fill="none" xmlns="http://www.w3.org/2000/svg">
<path d="M23.2718 268.343C26.1207 269.344 29.1796 269.595 32.1536 269.071C35.1276 268.548 37.9167 267.267 40.2519 265.352C46.1992 260.36 48.0642 252.138 49.581 244.524L54.0686 222L44.6735 228.469C37.9166 233.121 31.008 237.923 26.33 244.661C21.652 251.4 19.6112 260.599 23.3687 267.891" fill="#09FD04"/>
<path d="M24.7226 297.18C23.5401 288.565 22.3234 279.838 23.1549 271.131C23.8917 263.397 26.2511 255.845 31.0545 249.651C33.6041 246.369 36.7066 243.558 40.2223 241.343C41.1389 240.764 41.9827 242.217 41.07 242.793C34.9867 246.637 30.2813 252.314 27.6324 259.005C24.7069 266.446 24.2372 274.557 24.7411 282.461C25.0457 287.241 25.6929 291.99 26.3429 296.733C26.3943 296.947 26.3622 297.173 26.2533 297.365C26.1444 297.557 25.9667 297.7 25.7562 297.766C25.5414 297.824 25.3125 297.794 25.1191 297.685C24.9257 297.575 24.7835 297.393 24.7232 297.179L24.7226 297.18Z" fill="#04BB00"/>
<path d="M33.2341 283.356C34.4558 285.214 36.1353 286.725 38.1107 287.745C40.0862 288.765 42.291 289.259 44.5128 289.179C50.2238 288.908 54.983 284.924 59.2668 281.14L71.9402 269.951L63.5528 269.549C57.521 269.26 51.3335 268.989 45.5884 270.851C39.8433 272.714 34.5449 277.188 33.4945 283.135" fill="#09FD04"/>
<path d="M21.3798 302.133C27.0728 292.059 33.6758 280.864 45.4751 277.286C48.7556 276.294 52.1954 275.939 55.6093 276.239C56.6855 276.332 56.4167 277.991 55.3428 277.898C49.6202 277.423 43.9086 278.934 39.1695 282.177C34.7145 285.409 30.9376 289.485 28.0532 294.173C26.2122 296.976 24.5634 299.899 22.9144 302.817C22.3876 303.75 20.8467 303.076 21.3798 302.133Z" fill="#04BB00"/>
<path d="M544.027 255.176C547.95 256.555 552.162 256.9 556.257 256.179C560.353 255.458 564.194 253.694 567.409 251.057C575.599 244.183 578.167 232.861 580.256 222.375L586.436 191.359L573.498 200.267C564.193 206.673 554.68 213.286 548.238 222.565C541.796 231.844 538.986 244.512 544.16 254.553" fill="#09FD04"/>
<path d="M546.024 294.886C544.396 283.023 542.721 271.006 543.866 259.015C544.88 248.365 548.129 237.966 554.744 229.435C558.255 224.917 562.527 221.045 567.369 217.995C568.631 217.198 569.793 219.199 568.536 219.992C560.159 225.286 553.679 233.104 550.031 242.318C546.003 252.564 545.356 263.733 546.05 274.618C546.469 281.2 547.361 287.739 548.256 294.27C548.326 294.566 548.282 294.877 548.132 295.141C547.982 295.405 547.738 295.602 547.448 295.693C547.152 295.773 546.837 295.732 546.571 295.581C546.304 295.43 546.108 295.18 546.025 294.885L546.024 294.886Z" fill="#04BB00"/>
<path d="M557.746 275.85C559.428 278.408 561.741 280.489 564.461 281.894C567.181 283.298 570.217 283.978 573.277 283.869C581.141 283.495 587.695 278.009 593.594 272.798L611.046 257.389L599.496 256.837C591.19 256.439 582.67 256.066 574.758 258.63C566.847 261.194 559.551 267.356 558.104 275.545" fill="#09FD04"/>
<path d="M541.421 301.706C549.261 287.835 558.354 272.418 574.602 267.491C579.12 266.125 583.857 265.636 588.558 266.05C590.04 266.178 589.669 268.461 588.191 268.334C580.31 267.68 572.445 269.761 565.919 274.226C559.639 278.501 554.749 284.444 550.611 290.745C548.076 294.606 545.805 298.63 543.535 302.648C542.809 303.933 540.687 303.005 541.421 301.706Z" fill="#04BB00"/>
<path d="M199.81 286.823C198.841 286.825 197.911 287.21 197.226 287.896C196.54 288.581 196.155 289.51 196.154 290.48V298.117C196.155 299.087 196.54 300.016 197.226 300.701C197.911 301.387 198.841 301.772 199.81 301.773H258.64C259.609 301.772 260.539 301.387 261.224 300.701C261.91 300.016 262.295 299.087 262.296 298.117V290.48C262.295 289.51 261.91 288.581 261.224 287.896C260.539 287.21 259.609 286.825 258.64 286.823H199.81Z" fill="#2F2E41"/>
<path d="M233.642 281.737C233.278 281.527 232.845 281.47 232.439 281.579C232.033 281.688 231.686 281.953 231.476 282.318L229.29 286.104L227.147 281.87C226.958 281.495 226.626 281.211 226.227 281.079C225.827 280.948 225.392 280.981 225.017 281.171C224.642 281.361 224.357 281.692 224.226 282.092C224.095 282.491 224.128 282.927 224.318 283.302L225.985 286.597H225.374V302H233.529V286.597H232.667L234.222 283.903C234.433 283.539 234.49 283.106 234.381 282.7C234.272 282.294 234.006 281.948 233.642 281.737Z" fill="#0CAFFF"/>
<path d="M810 304H1C0.734784 304 0.480429 303.895 0.292892 303.707C0.105356 303.52 0 303.265 0 303C0 302.735 0.105356 302.48 0.292892 302.293C0.480429 302.105 0.734784 302 1 302H810C810.265 302 810.52 302.105 810.707 302.293C810.895 302.48 811 302.735 811 303C811 303.265 810.895 303.52 810.707 303.707C810.52 303.895 810.265 304 810 304Z" fill="#CBCBCB"/>
</svg>
