<svg width="811" height="304" viewBox="0 0 811 304" fill="none" xmlns="http://www.w3.org/2000/svg">
<path d="M470.549 46.4563C469.722 46.0962 469.057 45.4447 468.679 44.6258C468.302 43.8069 468.239 42.8778 468.502 42.0153C468.544 41.883 468.571 41.7463 468.582 41.6077V41.6077C468.606 41.2126 468.502 40.8202 468.285 40.4886C468.069 40.1571 467.752 39.9041 467.38 39.7671C467.009 39.6301 466.603 39.6163 466.223 39.7279C465.843 39.8395 465.509 40.0704 465.271 40.3865V40.3865C465.189 40.4987 465.121 40.6201 465.067 40.7483C464.707 41.5751 464.056 42.2406 463.237 42.6181C462.418 42.9957 461.489 43.0589 460.626 42.7958C460.494 42.7532 460.357 42.7264 460.219 42.7159V42.7159C459.823 42.6919 459.431 42.7958 459.1 43.0122C458.768 43.2286 458.515 43.546 458.378 43.9174C458.241 44.2888 458.227 44.6945 458.339 45.0744C458.45 45.4542 458.681 45.788 458.997 46.0264C459.11 46.1083 459.231 46.1768 459.359 46.2303C460.186 46.5903 460.851 47.2418 461.229 48.0607C461.607 48.8796 461.67 49.8088 461.407 50.6713C461.364 50.8035 461.337 50.9403 461.327 51.0788V51.0788C461.303 51.474 461.407 51.8664 461.623 52.1979C461.839 52.5294 462.157 52.7825 462.528 52.9195C462.9 53.0565 463.305 53.0702 463.685 52.9587C464.065 52.8471 464.399 52.6161 464.637 52.3V52.3C464.719 52.1878 464.788 52.0664 464.841 51.9382C465.201 51.1114 465.853 50.446 466.672 50.0684C467.491 49.6909 468.42 49.6276 469.282 49.8907C469.414 49.9333 469.551 49.9601 469.69 49.9706V49.9706C470.085 49.9947 470.477 49.8908 470.809 49.6744C471.14 49.458 471.393 49.1406 471.53 48.7691C471.667 48.3977 471.681 47.992 471.57 47.6122C471.458 47.2323 471.227 46.8985 470.911 46.6601V46.6601C470.799 46.5782 470.677 46.5098 470.549 46.4563Z" fill="#FAFF00"/>
<path d="M540.549 209.456C539.722 209.096 539.057 208.445 538.679 207.626C538.302 206.807 538.239 205.878 538.502 205.015C538.544 204.883 538.571 204.746 538.582 204.608V204.608C538.606 204.213 538.502 203.82 538.285 203.489C538.069 203.157 537.752 202.904 537.38 202.767C537.009 202.63 536.603 202.616 536.223 202.728C535.843 202.839 535.509 203.07 535.271 203.387V203.387C535.189 203.499 535.121 203.62 535.067 203.748C534.707 204.575 534.056 205.241 533.237 205.618C532.418 205.996 531.489 206.059 530.626 205.796C530.494 205.753 530.357 205.726 530.219 205.716V205.716C529.823 205.692 529.431 205.796 529.1 206.012C528.768 206.229 528.515 206.546 528.378 206.917C528.241 207.289 528.227 207.695 528.339 208.074C528.45 208.454 528.681 208.788 528.997 209.026C529.11 209.108 529.231 209.177 529.359 209.23C530.186 209.59 530.851 210.242 531.229 211.061C531.607 211.88 531.67 212.809 531.407 213.671C531.364 213.804 531.337 213.94 531.327 214.079C531.303 214.474 531.407 214.866 531.623 215.198C531.839 215.529 532.157 215.782 532.528 215.919C532.9 216.056 533.305 216.07 533.685 215.959C534.065 215.847 534.399 215.616 534.637 215.3C534.719 215.188 534.788 215.066 534.841 214.938C535.201 214.111 535.853 213.446 536.672 213.068C537.491 212.691 538.42 212.628 539.282 212.891C539.414 212.933 539.551 212.96 539.69 212.971V212.971C540.085 212.995 540.477 212.891 540.809 212.674C541.14 212.458 541.393 212.141 541.53 211.769C541.667 211.398 541.681 210.992 541.57 210.612C541.458 210.232 541.227 209.898 540.911 209.66V209.66C540.799 209.578 540.677 209.51 540.549 209.456V209.456Z" fill="#FAFF00"/>
<path d="M173.549 114.456C172.722 114.096 172.057 113.445 171.679 112.626C171.302 111.807 171.239 110.878 171.502 110.015C171.544 109.883 171.571 109.746 171.582 109.608V109.608C171.606 109.213 171.502 108.82 171.285 108.489C171.069 108.157 170.752 107.904 170.38 107.767C170.009 107.63 169.603 107.616 169.223 107.728C168.843 107.839 168.509 108.07 168.271 108.387V108.387C168.189 108.499 168.121 108.62 168.067 108.748C167.707 109.575 167.056 110.241 166.237 110.618C165.418 110.996 164.489 111.059 163.626 110.796C163.494 110.753 163.357 110.726 163.219 110.716V110.716C162.823 110.692 162.431 110.796 162.1 111.012C161.768 111.229 161.515 111.546 161.378 111.917C161.241 112.289 161.227 112.695 161.339 113.074C161.45 113.454 161.681 113.788 161.997 114.026C162.11 114.108 162.231 114.177 162.359 114.23C163.186 114.59 163.851 115.242 164.229 116.061C164.607 116.88 164.67 117.809 164.407 118.671C164.364 118.804 164.337 118.94 164.327 119.079V119.079C164.303 119.474 164.407 119.866 164.623 120.198C164.839 120.529 165.157 120.782 165.528 120.919C165.9 121.056 166.305 121.07 166.685 120.959C167.065 120.847 167.399 120.616 167.637 120.3V120.3C167.719 120.188 167.788 120.066 167.841 119.938C168.201 119.111 168.853 118.446 169.672 118.068C170.491 117.691 171.42 117.628 172.282 117.891C172.414 117.933 172.551 117.96 172.69 117.971V117.971C173.085 117.995 173.477 117.891 173.809 117.674C174.14 117.458 174.393 117.141 174.53 116.769C174.667 116.398 174.681 115.992 174.57 115.612C174.458 115.232 174.227 114.898 173.911 114.66V114.66C173.799 114.578 173.677 114.51 173.549 114.456V114.456Z" fill="#FAFF00"/>
</svg>
