<svg width="512" height="512" viewBox="0 0 512 512" fill="none" xmlns="http://www.w3.org/2000/svg">
<path d="M370.162 498.162H141.838C134.498 498.162 127.458 495.246 122.268 490.056C117.078 484.866 114.162 477.827 114.162 470.487V41.5136C114.162 34.1735 117.078 27.1341 122.268 21.9439C127.458 16.7537 134.498 13.8379 141.838 13.8379H370.162C377.502 13.8379 384.542 16.7537 389.732 21.9439C394.922 27.1341 397.838 34.1735 397.838 41.5136V470.487C397.838 477.827 394.922 484.866 389.732 490.056C384.542 495.246 377.502 498.162 370.162 498.162ZM141.838 27.6757C138.168 27.6757 134.648 29.1336 132.053 31.7287C129.458 34.3238 128 37.8435 128 41.5136V470.487C128 474.157 129.458 477.676 132.053 480.271C134.648 482.866 138.168 484.324 141.838 484.324H370.162C373.832 484.324 377.352 482.866 379.947 480.271C382.542 477.676 384 474.157 384 470.487V41.5136C384 37.8435 382.542 34.3238 379.947 31.7287C377.352 29.1336 373.832 27.6757 370.162 27.6757H141.838Z" fill="white"/>
<path d="M390.919 89.946H121.081C119.246 89.946 117.486 89.217 116.189 87.9195C114.891 86.6219 114.162 84.8621 114.162 83.0271C114.162 81.1921 114.891 79.4322 116.189 78.1347C117.486 76.8371 119.246 76.1082 121.081 76.1082H390.919C392.754 76.1082 394.514 76.8371 395.811 78.1347C397.109 79.4322 397.838 81.1921 397.838 83.0271C397.838 84.8621 397.109 86.6219 395.811 87.9195C394.514 89.217 392.754 89.946 390.919 89.946Z" fill="white"/>
<path d="M390.919 408.216H121.081C119.246 408.216 117.486 407.487 116.189 406.19C114.891 404.892 114.162 403.132 114.162 401.297C114.162 399.462 114.891 397.702 116.189 396.405C117.486 395.107 119.246 394.378 121.081 394.378H390.919C392.754 394.378 394.514 395.107 395.811 396.405C397.109 397.702 397.838 399.462 397.838 401.297C397.838 403.132 397.109 404.892 395.811 406.19C394.514 407.487 392.754 408.216 390.919 408.216Z" fill="white"/>
<path d="M256 471.787C250.953 471.787 246.02 470.291 241.824 467.487C237.627 464.683 234.357 460.698 232.425 456.035C230.494 451.372 229.989 446.242 230.973 441.292C231.958 436.342 234.388 431.796 237.957 428.227C241.525 424.658 246.072 422.228 251.022 421.243C255.972 420.259 261.102 420.764 265.765 422.696C270.428 424.627 274.413 427.897 277.217 432.094C280.02 436.29 281.517 441.223 281.517 446.27C281.51 453.035 278.819 459.522 274.035 464.305C269.251 469.089 262.765 471.78 256 471.787ZM256 434.598C253.69 434.598 251.431 435.283 249.511 436.567C247.59 437.85 246.093 439.675 245.209 441.809C244.325 443.944 244.095 446.292 244.546 448.558C244.997 450.824 246.11 452.905 247.744 454.538C249.378 456.171 251.46 457.283 253.726 457.733C255.992 458.182 258.34 457.95 260.474 457.065C262.608 456.18 264.432 454.682 265.714 452.761C266.997 450.839 267.68 448.58 267.679 446.27C267.675 443.174 266.444 440.207 264.254 438.018C262.064 435.83 259.096 434.6 256 434.598Z" fill="white"/>
<path d="M283.676 60.5405H228.324C226.489 60.5405 224.729 59.8115 223.432 58.514C222.134 57.2164 221.405 55.4566 221.405 53.6216C221.405 51.7865 222.134 50.0267 223.432 48.7291C224.729 47.4316 226.489 46.7026 228.324 46.7026H283.676C285.511 46.7026 287.271 47.4316 288.568 48.7291C289.866 50.0267 290.595 51.7865 290.595 53.6216C290.595 55.4566 289.866 57.2164 288.568 58.514C287.271 59.8115 285.511 60.5405 283.676 60.5405Z" fill="white"/>
<path d="M346 277.935H166C168.88 247.425 186.32 221.364 212.068 207.412L197.137 181.547C196.294 180.097 196.784 178.255 198.234 177.412C199.684 176.57 201.526 177.06 202.368 178.51L217.496 204.708C229.037 199.437 242.029 196.498 256 196.498C269.971 196.498 282.963 199.437 294.504 204.708L309.632 178.51C310.455 177.06 312.316 176.57 313.747 177.412C315.177 178.255 315.686 180.097 314.844 181.547L299.912 207.412C325.68 221.364 343.12 247.425 346 277.935V277.935ZM297.306 252.657C301.48 252.657 304.87 249.267 304.85 245.113C304.85 240.959 301.48 237.569 297.306 237.569C293.152 237.569 289.762 240.939 289.762 245.113C289.762 249.267 293.133 252.657 297.306 252.657ZM214.674 252.657C218.848 252.657 222.238 249.267 222.218 245.113C222.218 240.959 218.848 237.569 214.674 237.569C210.52 237.569 207.13 240.939 207.13 245.113C207.13 249.267 210.5 252.657 214.674 252.657Z" fill="white"/>
</svg>
