<svg width="512" height="512" viewBox="0 0 512 512" fill="none" xmlns="http://www.w3.org/2000/svg">
<path d="M193.333 74.6667L192 160H53.3333C53.3333 160 53.3333 132.619 53.3333 112C53.3333 91.3814 70.048 74.6667 90.6666 74.6667C111.285 74.6667 193.333 74.6667 193.333 74.6667Z" fill="#37474F"/>
<path d="M320.096 60.0214L339.829 26.7734C342.837 21.7067 341.163 15.1574 336.107 12.1494C331.04 9.13072 324.501 10.8161 321.483 15.8721L300.736 50.8161C286.816 45.6107 271.765 42.6667 256 42.6667C240.235 42.6667 225.184 45.6107 211.253 50.8267L190.507 15.8827C187.499 10.8267 180.96 9.14139 175.883 12.1601C170.816 15.1681 169.152 21.7174 172.16 26.7841L191.893 60.0321C156.683 80.512 132.075 117.227 128.533 160.011H383.467C379.925 117.216 355.317 80.5014 320.096 60.0214Z" fill="#00E676"/>
<path d="M202.667 117.333C208.558 117.333 213.333 112.558 213.333 106.667C213.333 100.776 208.558 96 202.667 96C196.776 96 192 100.776 192 106.667C192 112.558 196.776 117.333 202.667 117.333Z" fill="white"/>
<path d="M309.333 117.333C315.224 117.333 320 112.558 320 106.667C320 100.776 315.224 96 309.333 96C303.442 96 298.667 100.776 298.667 106.667C298.667 112.558 303.442 117.333 309.333 117.333Z" fill="white"/>
<path d="M421.333 149.333C416.064 149.333 99.84 149.333 90.6666 149.333C70.048 149.333 53.3333 132.619 53.3333 112C53.3333 112.011 53.3333 379.381 53.3333 400C53.3333 420.619 70.048 437.333 90.6666 437.333C99.84 437.333 458.667 437.333 458.667 437.333C458.667 437.333 458.667 207.285 458.667 186.667C458.667 166.048 441.952 149.333 421.333 149.333Z" fill="#448AFF"/>
<path d="M421.333 224C417.685 224 412.043 224 405.333 224V500C412.043 500 417.685 500 421.333 500C441.952 500 458.667 483.285 458.667 462.667C458.667 442.048 458.667 186.667 458.667 186.667C458.667 207.285 441.952 224 421.333 224Z" fill="#37474F"/>
<path d="M360.192 469.984L280.789 301.248C291.573 293.493 298.667 280.928 298.667 266.667C298.667 246.848 285.013 230.283 266.667 225.515V202.667C266.667 196.779 261.888 192 256 192C250.112 192 245.333 196.779 245.333 202.667V225.515C226.987 230.283 213.333 246.848 213.333 266.667C213.333 280.928 220.427 293.493 231.211 301.248L151.851 469.899C147.328 479.509 149.707 491.499 158.464 497.504C169.632 505.163 184.459 500.8 189.973 489.077L239.499 383.84C246.069 369.877 265.941 369.877 272.512 383.84L322.037 489.077C325.664 496.811 333.333 501.333 341.344 501.333C345.728 501.333 350.219 499.968 354.176 497.045C362.475 490.923 364.587 479.317 360.192 469.984ZM256 245.333C267.765 245.333 277.333 254.901 277.333 266.667C277.333 278.432 267.765 288 256 288C244.235 288 234.667 278.432 234.667 266.667C234.667 254.901 244.235 245.333 256 245.333Z" fill="#37474F"/>
</svg>
