<svg width="512" height="512" viewBox="0 0 512 512" fill="none" xmlns="http://www.w3.org/2000/svg">
<path d="M56.481 105.32C55.515 77.58 77.128 52 106.342 52H405.695C434.909 52 456.522 77.58 455.556 105.32C454.628 131.967 455.833 166.485 464.52 194.63C473.235 222.862 487.931 240.707 512 243V269C487.931 271.293 473.235 289.138 464.52 317.37C455.833 345.515 454.628 380.033 455.556 406.681C456.522 434.42 434.909 460 405.695 460H106.342C77.128 460 55.515 434.42 56.482 406.681C57.409 380.033 56.204 345.515 47.516 317.37C38.802 289.138 24.07 271.293 0 269V243C24.069 240.707 38.802 222.862 47.516 194.63C56.204 166.485 57.409 131.967 56.481 105.32Z" fill="url(#paint0_linear)"/>
<g filter="url(#filter0_d)">
<path d="M262.202 365C309.499 365 338 341.842 338 303.645C338 274.772 317.664 253.869 287.468 250.56V249.357C309.653 245.748 327.062 225.146 327.062 202.138C327.062 169.355 301.18 148 261.74 148H173V365H262.202ZM207.51 175.52H253.421C278.379 175.52 292.552 186.648 292.552 206.799C292.552 228.304 276.068 240.334 246.18 240.334H207.51V175.52ZM207.51 337.481V266.05H253.112C285.773 266.05 302.72 278.08 302.72 301.54C302.72 324.999 286.236 337.481 255.115 337.481H207.51Z" fill="url(#paint1_linear)"/>
<path d="M262.202 365C309.499 365 338 341.842 338 303.645C338 274.772 317.664 253.869 287.468 250.56V249.357C309.653 245.748 327.062 225.146 327.062 202.138C327.062 169.355 301.18 148 261.74 148H173V365H262.202ZM207.51 175.52H253.421C278.379 175.52 292.552 186.648 292.552 206.799C292.552 228.304 276.068 240.334 246.18 240.334H207.51V175.52ZM207.51 337.481V266.05H253.112C285.773 266.05 302.72 278.08 302.72 301.54C302.72 324.999 286.236 337.481 255.115 337.481H207.51Z" stroke="white"/>
</g>
<defs>
<filter id="filter0_d" x="156.5" y="135.5" width="198" height="250" filterUnits="userSpaceOnUse" color-interpolation-filters="sRGB">
<feFlood flood-opacity="0" result="BackgroundImageFix"/>
<feColorMatrix in="SourceAlpha" type="matrix" values="0 0 0 0 0 0 0 0 0 0 0 0 0 0 0 0 0 0 127 0" result="hardAlpha"/>
<feOffset dy="4"/>
<feGaussianBlur stdDeviation="8"/>
<feColorMatrix type="matrix" values="0 0 0 0 0 0 0 0 0 0 0 0 0 0 0 0 0 0 0.15 0"/>
<feBlend mode="normal" in2="BackgroundImageFix" result="effect1_dropShadow"/>
<feBlend mode="normal" in="SourceGraphic" in2="effect1_dropShadow" result="shape"/>
</filter>
<linearGradient id="paint0_linear" x1="76.079" y1="62.798" x2="523.48" y2="417.945" gradientUnits="userSpaceOnUse">
<stop stop-color="#9013FE"/>
<stop offset="1" stop-color="#6610F2"/>
</linearGradient>
<linearGradient id="paint1_linear" x1="188.607" y1="162.283" x2="288.613" y2="331.415" gradientUnits="userSpaceOnUse">
<stop stop-color="white"/>
<stop offset="1" stop-color="#F1E5FC"/>
</linearGradient>
</defs>
</svg>
