<svg width="512" height="512" viewBox="0 0 512 512" fill="none" xmlns="http://www.w3.org/2000/svg">
<rect x="88" y="32" width="337" height="404" fill="white"/>
<path d="M35.0393 4L75.2593 455.532L255.731 505.852L436.707 455.348L476.959 4H35.0393ZM393.403 107.448L380.015 257.868L380.055 258.68L379.999 260.548V260.532L370.487 365.708L369.439 375.052L255.999 406.428V406.432L255.911 406.508L142.667 374.956L134.999 288H190.531L194.471 332.216L256.015 348.896L255.999 348.928V348.92L317.771 332.004L324.299 260H195.167L194.059 247.828L191.535 219.312L190.211 204H329.207L334.263 148H122.559L121.451 135.836L118.931 107.312L117.603 92H394.727L393.403 107.448Z" fill="#1572B6"/>
</svg>
