<svg width="512" height="512" viewBox="0 0 512 512" fill="none" xmlns="http://www.w3.org/2000/svg">
<mask id="path-1-outside-1" maskUnits="userSpaceOnUse" x="26.9314" y="63.4695" width="458" height="410" fill="black">
<rect fill="white" x="26.9314" y="63.4695" width="458" height="410"/>
<path d="M165.5 424.9C148.4 411.3 130.1 398.5 117.6 380.2C91.3 348.2 71 311 57.1 271.9C48.7 246.6 45.9 219.3 35.1 194.9C23.8 177.3 37 157.8 56.4 152.2C65 150.5 80.3 142.4 61.9 148.2C45.4 160.2 43.9 137.2 60.7 135.8C72.2 134.3 76.4 124.8 72.5 116.4C60.2 108.3 102.5 99.4999 81.2 87.3999C59 63.4999 112.2 58.7999 99.1 85.9999C96 107 136.3 82.1999 126.9 106.4C136.4 118 162.5 109 161.8 125.3C175.7 126.3 180.5 137.9 193.4 138.8C207 145 231.3 149.7 235.9 164.9C222.5 175.5 191.5 143.1 190.1 172.4C194.1 215.7 193.1 260.3 208.9 301.5C216.4 326.5 234.6 346.2 251 365.6C266.7 384.7 287.9 398 309.6 409.4C328.6 418.3 349.2 424.3 369.9 428C378.3 421.6 393.1 397.7 406.2 407.8C406.8 419.1 380.2 431.5 404.9 430.2C419.4 425.8 429.5 441.4 441.5 427.3C452.5 440.3 487.3 418.9 479.5 445.7C468.9 452.5 453.4 448.4 442.7 457.8C425.2 449.1 411.2 465.6 391.8 463.6C370.3 467.4 348.3 469 326.5 469C290.7 466.1 254.1 465 219.9 452.5C201.1 446.7 182.4 435.8 165.5 424.9ZM195.7 438C214.4 446.1 232.8 454.6 253.4 457.3C286 461.8 319.7 468.8 352.4 462.4C337.6 455.7 322.2 465 307.5 457.6C289.8 461.4 270.8 456.6 252.8 454.3C232.4 445.2 210.3 438.9 191.1 427C167.2 418.3 203.5 438.2 210 439.9C224.9 448.4 193.5 435.5 189.1 432C176.6 425 175 426.4 187.8 433.5C190.4 435.1 193 436.7 195.7 438ZM160 412.8C178.2 419.5 159.9 400.1 151.6 401.2C147.9 394.8 137.5 390.7 144.9 387.4C131.6 391.9 131.1 370 124.8 373C110.8 368.6 119.4 353 102.8 343.4C101.3 333.3 86.2 324.5 81.4 309.2C79.3 301.4 64.5 279 73.6 299.8C81.4 319.9 95.1 337.1 106.4 354.4C115.3 370.7 125.7 387.9 141.8 398C147.1 403.2 152.3 411.2 160 412.8ZM107.7 355.3C108.3 352.6 110.9 361.2 107.7 355.3V355.3ZM181.8 420.8C185.8 419.1 176 418.6 181.8 420.8V420.8ZM191.7 424.5C190.6 419.5 187.1 427.2 191.7 424.5V424.5ZM204 429.6C209.9 424 195 426.1 204 429.6V429.6ZM225.2 441.4C228.8 436.1 213.7 439.4 225.2 441.4V441.4ZM184.6 413.1C193.6 407.1 172.7 413 184.6 413.1V413.1ZM193.8 417.7C193.6 414.5 190.5 419.1 193.8 417.7V417.7ZM240.1 446.6C247.6 451.3 283.6 456.9 261.1 448.5C257.3 449.3 219.2 437.7 240.1 446.6ZM166.6 389.3C165.9 386.2 155 385.8 166.6 389.3V389.3ZM188.1 401.8C193.8 398 176.5 398.8 188.1 401.8V401.8ZM206.3 413C214.4 410 193.2 409.9 206.3 413V413ZM157.8 379.7C166.5 386.4 193 380.6 171.2 375.7C161.2 370.4 138.8 366.8 154.1 378.8L157.8 379.7ZM218.5 416.9C222.2 410.6 203.3 413.3 218.5 416.9V416.9ZM200.1 402.1C221.5 408.2 182.2 388.6 194.8 399.9L197.7 401.2L200.1 402.1ZM237.1 423.5C257.3 423.8 218.8 420.7 237.1 423.5V423.5ZM150.1 368C149.3 364.3 145.1 368.4 150.1 368V368ZM271.3 442.7C271.9 435.9 264.8 447.8 271.3 442.7V442.7ZM184.6 389.2C183.3 385.6 178.3 389 184.6 389.2V389.2ZM152 365.7C163.5 365 136.1 360.5 152 365.7V365.7ZM113.3 340.7C111.9 335.1 100.7 330.7 113.3 340.7V340.7ZM214.7 405.1C212.6 402.6 213.7 405.6 214.7 405.1V405.1ZM277.8 443.8C277.6 440.1 274.4 445.2 277.8 443.8V443.8ZM209.2 399.4C210.3 394.5 199.2 397.9 209.2 399.4V399.4ZM162.1 369.5C170.7 368.6 148.3 363.7 162.1 369.5V369.5ZM241.7 418.9C255.1 413.6 228.5 416.3 241.7 418.9V418.9ZM200.3 390.9C215.8 392.9 181.8 380.4 196.9 389.8L200.3 390.9ZM254.2 424C268.7 415.3 263.9 444.3 278.8 426.4C293.5 415.7 266.1 439.7 284.2 428.3C297.2 419.6 316.6 432.5 328.7 436.7C337.5 436.3 346.1 444.3 355 439.4C372.4 434.7 321.2 432.5 334.6 424.2C318.8 428.8 307.1 418.7 299.3 408.5C281.5 404.4 261 395.3 252.1 379.6C248.4 373.7 257.3 380.5 249 370.8C238.3 361.3 233 350.4 225.8 338.9C217.2 334.4 216.2 320.9 215.3 338.5C215.4 327.4 204.9 319.9 202.4 323C202.3 312.3 213.5 317.7 205.7 309.7C204 298.6 198.4 287 196.8 274.5C194.2 268.5 196.4 255.6 187.9 269.2C184.8 283.6 186.9 251.5 191.7 262.1C198 251.3 189.4 252.5 189.1 254C193.2 244.8 191.7 231.9 188 236.8C190.2 227.1 191.5 201.1 184.7 205.8C188.8 195.7 192.5 159.4 174.7 173.3C167.4 173.4 155 175.9 149.1 178.9C167.6 189.1 147.2 182.6 139.7 181C138.7 190.4 131.3 186.3 122 186.4C136.9 188.2 114.7 201.6 106.2 196.4C95.1 201.7 115.8 214.9 106.4 219C107.6 225.2 89.5 216.8 90.9 231C80.1 226.5 89.4 247.9 94.8 240.7C113.1 245.6 107.7 256.9 108.1 267.7C105.2 273.9 93.4 253 105.5 253.9C96 238.4 95 248.3 87 255.5C85.2 256 107.3 265.8 93.4 270.6C105.6 272.4 105.9 283.1 108.3 289.9C115.6 297.6 114.2 281.5 123 290.7C117.4 282.5 93.6 267.6 112.7 272.4C112.6 264.2 109.3 257.5 115.1 257.7C121 247.2 109 283.7 122.1 270.3C125.8 268.7 126.6 259.8 133.2 271.1C142.6 280.5 136.6 287.2 123.2 278.6C125.5 286.7 141.1 289.7 138.1 302.3C141.2 313.5 145.5 309.3 149.3 308.7C152.2 319.5 153.9 311.6 154.1 306.4C167.7 309.3 164.4 317.3 168.7 323C178 327.2 155.4 294.4 171.4 313.1C188.2 328.3 177.7 334.6 162.5 332.2C172.1 331.5 175.2 345.2 187.1 344.6C198 349.8 205.4 369.7 186.6 361.4C180.1 355.5 157 348.2 175.9 359.4C193.3 367.5 207.1 372.3 223.9 382.4C235.8 391 241.1 400.9 245.7 402.8C235.6 407.6 215.2 398.9 230.3 396.3C220.9 394.6 210.3 389.9 219.3 401.6C227 408 246.5 407.3 250 408C247 414.5 241.9 415 250.1 415.5C241.4 420.5 253.5 421.2 254.2 424ZM235.6 371.4C230 365.5 228.6 354.7 234.6 364.1C237.7 365.4 244.5 381.9 235.6 371.4ZM296.3 409.9C299.8 409.8 296.4 412.5 296.3 409.9V409.9ZM226.8 357.1C226.6 348.4 228.8 363.9 226.8 357.1V357.1ZM220.7 349C213.8 335.6 229.6 352.9 220.7 349V349ZM147.7 298.5C151.8 297.4 149.6 305.5 147.7 298.5V298.5ZM205.9 330.1C208.4 320.6 208.8 338.1 205.9 330.1V330.1ZM164.7 301.5C161.9 296.3 170.8 306.4 164.7 301.5V301.5ZM200 312.8C193.4 298 204.7 304.7 201.5 315.3L200 312.8ZM139.2 272.2C136.3 267.4 131.4 253.1 133 248.8C134.4 255.8 148 279.3 139.7 258.5C130.5 241.1 150.8 264.1 152.9 268.5C153.9 272.8 147.2 267.3 151.6 277.4C143.3 265.8 146.7 283.8 139.2 272.2ZM120.3 259.2C121.1 248 124.6 267 120.3 259.2V259.2ZM128.8 262.2C132.8 253.6 135.6 274.1 128.8 262.2V262.2ZM108.5 246.4C101.5 239.4 96.4 233 108.8 242.1C113.6 242.2 98.3 227.5 110 237.4C122.3 239.7 116 257.7 108.5 246.4ZM119.2 246.1C123.3 242.1 121.3 250.1 119.2 246.1V246.1ZM125.8 248.3C119.6 236.7 133.2 253.1 125.8 248.3V248.3ZM112.6 235.8C92.2 217.7 138.2 245.3 115.9 239.2L112.6 235.8ZM171 269.7C162.1 264.4 168.7 232.5 171.7 254.3C180.3 251.5 171.2 265.6 177.6 265.4C176.6 274.3 173.7 277.5 171 269.7ZM192.5 282.4C193.4 272.8 194.4 289 192.5 282.4V282.4ZM188.8 278.7C189.8 274.6 188.9 283.5 188.8 278.7V278.7ZM116.7 229.8C103.6 211.7 154.7 248 125.1 234.3C121.9 233.6 118.2 233.3 116.7 229.8ZM158.2 251.9C156.9 236.6 161 254.3 158.2 251.9V251.9ZM189.8 272.1C192.2 263.4 189.9 277.8 189.8 272.1V272.1ZM118.6 222.9C126.4 221.2 150.8 236.5 128.3 227.3C125.9 224.5 120.6 225.8 118.6 222.9ZM185.4 256.2C186.3 240.7 190.1 246.9 185.5 258.4L185.4 256.2ZM124.4 217.5C127.5 212.9 116 196.5 126.1 211.6C130.4 215 138.7 217.4 131.4 218.9C142.9 229 128.6 221.6 124.4 217.5ZM182.1 251.3C184.3 233.6 184.1 261.7 182.1 251.3V251.3ZM117.8 201.2C120.3 200.1 119.1 204.4 117.8 201.2V201.2ZM132.9 210.1C136.7 202 140 219.2 132.9 210.1V210.1ZM175.3 233.8C175.3 230.6 176.1 238.2 175.3 233.8V233.8ZM172.8 228.3C167 213.8 178.3 236 172.8 228.3V228.3ZM169.2 218.8C168.2 212.7 172.6 226.3 169.2 218.8V218.8ZM175.1 209.2C171.1 202.1 180.2 177.9 181.2 192.9C177 204.6 180 211.2 183 195.5C188.4 183 181.8 219.9 175.1 209.2ZM181.1 173.1C182.9 170.9 181.6 175.7 181.1 173.1V173.1ZM171.1 372.1C168.7 370 171.4 373.4 171.1 372.1V372.1ZM191.9 382.6C203.4 385.6 203.4 380.8 192.9 379.5C187.3 374.2 169.5 368.7 185.4 378.8C186.5 381.4 189.8 381.3 191.9 382.6ZM150.8 355.3C157.2 360.1 174.7 368.8 159.8 357.1C164.8 351.3 150.2 348.2 155 344.3C142.7 336.7 145.3 337.4 154 337.6C139.1 330.9 156.1 331.4 155.3 328C149.5 326.9 126.8 317.9 140.2 328.7C126.6 321.8 136.9 331.3 132.8 330.3C118.9 326.5 145.2 340.9 130.6 337.3C138.6 343.6 152.1 353.5 134 344C131.6 347.5 147 352.7 150.8 355.3ZM172.6 367.9C199 376.4 159.6 357.4 172.6 367.9V367.9ZM283.9 435.3C284.2 430 280.3 439.8 283.9 435.3V435.3ZM295.4 440.1C301.5 434.2 295.6 449.5 305.5 438.6C305.6 430.8 305.2 426.2 294.2 435.7C291 437.4 289.7 444.6 295.4 440.1ZM113.6 326C111.8 318.6 100.5 318.6 113.6 326V326ZM125.8 334C121.3 326.5 109.6 327.2 125.8 334V334ZM195.4 376C202.2 382 226.6 380.4 203.7 376.7C200.2 371.7 182.1 372.9 195.4 376ZM291 435C301.5 426.2 280.9 438.9 291 435V435ZM312.7 449.9C312.8 447.1 308.2 451.1 312.7 449.9V449.9ZM312.7 446C324.3 433.7 301.5 446.7 312.7 446V446ZM83.6 300.9C73.7 286.8 77.4 280.5 67.9 269C66.1 260.1 51.6 240.2 60.4 261.4C68.5 273.7 70.9 292.8 83.6 300.9ZM309.1 442C330.4 428.3 300.4 436.1 309.1 442V442ZM325.4 448.4C336.1 439.3 318.7 446.5 325.4 448.4V448.4ZM110 310.4C113.1 305.9 102.2 309.9 110 310.4V310.4ZM322 444.1C332.3 437.4 319.7 438.5 320.2 444.7L322 444.1ZM181.9 355.8C181.6 351.3 176.4 356.1 181.9 355.8V355.8ZM190.6 360.8C187.8 355.2 186.3 361.6 190.6 360.8V360.8ZM338.6 448.6C351.8 439 330.5 446.7 335.8 450.4L338.6 448.6ZM333.5 446.2C344.3 437.1 322.1 450.2 333.5 446.2V446.2ZM359.4 463.4C366.6 458.5 350.6 461.8 359.4 463.4V463.4ZM116.7 307.2C126.4 309.4 155.4 331.1 138.3 308.7C129.5 306.1 134.8 284.6 125.8 288.4C131.8 298.4 130.8 302.8 118.2 296.4C102.3 288.7 109.3 300.3 112.3 303.4C108.1 304.4 117.9 307.1 116.7 307.2ZM72.5 272.3C74.2 265.1 56.5 232.8 64.1 256.1C66.9 260.9 66.6 270.2 72.5 272.3ZM153.5 322.3C148.5 318.1 153.3 321.7 153.5 322.3V322.3ZM165.8 325.2C165.8 317.5 152.3 322.1 165.8 325.2V325.2ZM272.4 392.3C270.3 387.1 264.3 392.2 272.4 392.3V392.3ZM277.5 396.1C276.8 393.1 274.6 396.6 277.5 396.1V396.1ZM319.7 422.6C323.8 419.6 314.7 422.3 319.7 422.6V422.6ZM94.6 277.9C106.2 273.4 82.1 274.7 94.6 277.9V277.9ZM263 384C262.9 376.5 255.6 385.9 263 384V384ZM89.9 267.2C97.4 264.7 83.1 265.5 89.9 267.2V267.2ZM111.6 277.7C111.5 275.2 109.3 278.7 111.6 277.7V277.7ZM375.8 439.7C385.4 437.8 407.3 444.6 410.8 437.1C399.2 436.9 370.4 428.9 369.1 439L371.7 439.4L375.8 439.7ZM118.5 279.5C118.6 271.8 112.6 279.2 118.5 279.5V279.5ZM61.5 239.9C59 225.4 51.7 237.7 61.5 239.9V239.9ZM75.1 243.4C75.3 238.7 62.7 239.1 75.1 243.4V243.4ZM82.9 247.2C80.6 245.3 81.2 249.4 82.9 247.2V247.2ZM131.7 278.4C134 276.4 126.3 276.9 131.7 278.4V278.4ZM77.7 238.6C76.4 227.6 62 236.9 77.7 238.6V238.6ZM49.9 220.5C49.5 215.5 47.2 222.4 49.9 220.5V220.5ZM54 217.4C53.3 211.4 50.5 218.1 54 217.4V217.4ZM76.9 231.1C86.6 227.3 59.3 223.2 74.9 230.4L76.9 231.1ZM383.1 420.2C389.3 414.5 375.3 418.4 383.1 420.2V420.2ZM420.2 439.3C422.6 432 413.9 440.3 420.2 439.3V439.3ZM79.2 219C80.3 211.9 71.5 220.4 79.2 219V219ZM46.7 197.2C44.9 187.2 45.2 169.6 61.9 175.5C39.6 180 77.4 203.3 72.6 184.9C82 185.3 91 179.3 86 188.5C104.5 186.4 117.3 170.4 135.2 172.6C149.1 170.8 164.3 169.4 179.4 163.8C191.7 162.8 203.6 149.6 196.8 141.8C180 140.3 162.4 142.5 143.8 146.1C123.2 150.4 104.5 158.5 83.7 162.1C63.4 164.8 87.7 169.6 81.9 170.7C71.4 174.4 94.5 176.9 80.5 180.7C72 179 63 176 66.6 166.9C47.2 169.4 30.1 177.5 45.5 197.2H46.7ZM93.5 173.4C98 156.6 117.9 187.2 101 175.6C98.9 174.1 95.6 172.9 93.5 173.4ZM94.3 165.3C100.9 160.5 97.8 168 94.3 165.3V165.3ZM102.7 165.4C103.3 157.7 121.7 169.5 105.7 168.2L102.7 165.4ZM114 160.8C118.2 156 115.3 165.2 114 160.8V160.8ZM117 158.9C124 150.5 156.3 153.6 132.6 158.1C126.3 153.4 121.4 160.9 117 158.9ZM159.2 152.4C158.1 129.6 180.2 160.5 159.2 152.4V152.4ZM171.2 152.3C175.6 140.8 188.2 147.7 173.3 150C173.5 151.2 172.8 155.9 171.2 152.3ZM74.5 213.2C87.6 205.1 60.7 206.2 74.5 213.2V213.2ZM84.1 215.9C88.8 211 74.2 213.8 84.1 215.9V215.9ZM55.7 195.6C63.1 189.9 46.9 193.4 55.7 195.6V195.6ZM442 437.3C442.2 430.6 436.3 440.3 442 437.3V437.3ZM402.7 410.5C403.8 402.8 397.7 411.2 402.7 410.5V410.5ZM452.8 439.9C463.3 439.9 484.4 436.7 461.7 436.7C458.1 437.2 440.9 437.1 452.8 439.9ZM92.6 211.1C101.1 210.5 105.9 201.8 91 202.3C67.9 199.9 111.3 210.1 88.1 207.2C85 209.3 92.5 211.7 92.6 211.1ZM100.1 214.9C99.2 209.4 97.5 217.8 100.1 214.9V214.9ZM108.9 191.4C112.7 186.8 103.9 190.1 108.9 191.4V191.4ZM80.8 144.4C96 139.3 116.6 133.5 123.7 146.9C116.4 138.2 120.8 129.6 127.7 142.4C137.4 155.4 142.2 136.5 135.9 132.2C143.1 141.1 151.2 145.3 140.7 132.7C152.1 119 117.8 134.5 109.9 134.4C106.2 136 71.1 143.2 80.8 144.4ZM89.6 127.4C98.2 120.9 119.4 131.2 105.8 120.9C104.6 119.8 76.1 128.7 89.6 127.4ZM121.1 128.7C131.2 129 116.8 115.2 128.8 121.4C126.8 115 114.8 113.7 108.9 111.1C105.5 117.1 115.6 128.7 121.1 128.7ZM95.2 100.2C98.7 95.4999 89.1 102.6 95.2 100.2V100.2ZM108 103.3C124.2 101.2 103.8 96.2999 104.7 103.2L108 103.3ZM84.1 84.4999C72.7 69.5999 105.6 87.0999 94 71.3999C84.1 63.5999 74.8 80.1999 84.1 84.4999ZM230.8 163.5C236.1 154.2 209.1 151 227.3 160.2C228.9 160.8 228.5 164.2 230.8 163.5Z"/>
</mask>
<path d="M165.5 424.9C148.4 411.3 130.1 398.5 117.6 380.2C91.3 348.2 71 311 57.1 271.9C48.7 246.6 45.9 219.3 35.1 194.9C23.8 177.3 37 157.8 56.4 152.2C65 150.5 80.3 142.4 61.9 148.2C45.4 160.2 43.9 137.2 60.7 135.8C72.2 134.3 76.4 124.8 72.5 116.4C60.2 108.3 102.5 99.4999 81.2 87.3999C59 63.4999 112.2 58.7999 99.1 85.9999C96 107 136.3 82.1999 126.9 106.4C136.4 118 162.5 109 161.8 125.3C175.7 126.3 180.5 137.9 193.4 138.8C207 145 231.3 149.7 235.9 164.9C222.5 175.5 191.5 143.1 190.1 172.4C194.1 215.7 193.1 260.3 208.9 301.5C216.4 326.5 234.6 346.2 251 365.6C266.7 384.7 287.9 398 309.6 409.4C328.6 418.3 349.2 424.3 369.9 428C378.3 421.6 393.1 397.7 406.2 407.8C406.8 419.1 380.2 431.5 404.9 430.2C419.4 425.8 429.5 441.4 441.5 427.3C452.5 440.3 487.3 418.9 479.5 445.7C468.9 452.5 453.4 448.4 442.7 457.8C425.2 449.1 411.2 465.6 391.8 463.6C370.3 467.4 348.3 469 326.5 469C290.7 466.1 254.1 465 219.9 452.5C201.1 446.7 182.4 435.8 165.5 424.9ZM195.7 438C214.4 446.1 232.8 454.6 253.4 457.3C286 461.8 319.7 468.8 352.4 462.4C337.6 455.7 322.2 465 307.5 457.6C289.8 461.4 270.8 456.6 252.8 454.3C232.4 445.2 210.3 438.9 191.1 427C167.2 418.3 203.5 438.2 210 439.9C224.9 448.4 193.5 435.5 189.1 432C176.6 425 175 426.4 187.8 433.5C190.4 435.1 193 436.7 195.7 438ZM160 412.8C178.2 419.5 159.9 400.1 151.6 401.2C147.9 394.8 137.5 390.7 144.9 387.4C131.6 391.9 131.1 370 124.8 373C110.8 368.6 119.4 353 102.8 343.4C101.3 333.3 86.2 324.5 81.4 309.2C79.3 301.4 64.5 279 73.6 299.8C81.4 319.9 95.1 337.1 106.4 354.4C115.3 370.7 125.7 387.9 141.8 398C147.1 403.2 152.3 411.2 160 412.8ZM107.7 355.3C108.3 352.6 110.9 361.2 107.7 355.3V355.3ZM181.8 420.8C185.8 419.1 176 418.6 181.8 420.8V420.8ZM191.7 424.5C190.6 419.5 187.1 427.2 191.7 424.5V424.5ZM204 429.6C209.9 424 195 426.1 204 429.6V429.6ZM225.2 441.4C228.8 436.1 213.7 439.4 225.2 441.4V441.4ZM184.6 413.1C193.6 407.1 172.7 413 184.6 413.1V413.1ZM193.8 417.7C193.6 414.5 190.5 419.1 193.8 417.7V417.7ZM240.1 446.6C247.6 451.3 283.6 456.9 261.1 448.5C257.3 449.3 219.2 437.7 240.1 446.6ZM166.6 389.3C165.9 386.2 155 385.8 166.6 389.3V389.3ZM188.1 401.8C193.8 398 176.5 398.8 188.1 401.8V401.8ZM206.3 413C214.4 410 193.2 409.9 206.3 413V413ZM157.8 379.7C166.5 386.4 193 380.6 171.2 375.7C161.2 370.4 138.8 366.8 154.1 378.8L157.8 379.7ZM218.5 416.9C222.2 410.6 203.3 413.3 218.5 416.9V416.9ZM200.1 402.1C221.5 408.2 182.2 388.6 194.8 399.9L197.7 401.2L200.1 402.1ZM237.1 423.5C257.3 423.8 218.8 420.7 237.1 423.5V423.5ZM150.1 368C149.3 364.3 145.1 368.4 150.1 368V368ZM271.3 442.7C271.9 435.9 264.8 447.8 271.3 442.7V442.7ZM184.6 389.2C183.3 385.6 178.3 389 184.6 389.2V389.2ZM152 365.7C163.5 365 136.1 360.5 152 365.7V365.7ZM113.3 340.7C111.9 335.1 100.7 330.7 113.3 340.7V340.7ZM214.7 405.1C212.6 402.6 213.7 405.6 214.7 405.1V405.1ZM277.8 443.8C277.6 440.1 274.4 445.2 277.8 443.8V443.8ZM209.2 399.4C210.3 394.5 199.2 397.9 209.2 399.4V399.4ZM162.1 369.5C170.7 368.6 148.3 363.7 162.1 369.5V369.5ZM241.7 418.9C255.1 413.6 228.5 416.3 241.7 418.9V418.9ZM200.3 390.9C215.8 392.9 181.8 380.4 196.9 389.8L200.3 390.9ZM254.2 424C268.7 415.3 263.9 444.3 278.8 426.4C293.5 415.7 266.1 439.7 284.2 428.3C297.2 419.6 316.6 432.5 328.7 436.7C337.5 436.3 346.1 444.3 355 439.4C372.4 434.7 321.2 432.5 334.6 424.2C318.8 428.8 307.1 418.7 299.3 408.5C281.5 404.4 261 395.3 252.1 379.6C248.4 373.7 257.3 380.5 249 370.8C238.3 361.3 233 350.4 225.8 338.9C217.2 334.4 216.2 320.9 215.3 338.5C215.4 327.4 204.9 319.9 202.4 323C202.3 312.3 213.5 317.7 205.7 309.7C204 298.6 198.4 287 196.8 274.5C194.2 268.5 196.4 255.6 187.9 269.2C184.8 283.6 186.9 251.5 191.7 262.1C198 251.3 189.4 252.5 189.1 254C193.2 244.8 191.7 231.9 188 236.8C190.2 227.1 191.5 201.1 184.7 205.8C188.8 195.7 192.5 159.4 174.7 173.3C167.4 173.4 155 175.9 149.1 178.9C167.6 189.1 147.2 182.6 139.7 181C138.7 190.4 131.3 186.3 122 186.4C136.9 188.2 114.7 201.6 106.2 196.4C95.1 201.7 115.8 214.9 106.4 219C107.6 225.2 89.5 216.8 90.9 231C80.1 226.5 89.4 247.9 94.8 240.7C113.1 245.6 107.7 256.9 108.1 267.7C105.2 273.9 93.4 253 105.5 253.9C96 238.4 95 248.3 87 255.5C85.2 256 107.3 265.8 93.4 270.6C105.6 272.4 105.9 283.1 108.3 289.9C115.6 297.6 114.2 281.5 123 290.7C117.4 282.5 93.6 267.6 112.7 272.4C112.6 264.2 109.3 257.5 115.1 257.7C121 247.2 109 283.7 122.1 270.3C125.8 268.7 126.6 259.8 133.2 271.1C142.6 280.5 136.6 287.2 123.2 278.6C125.5 286.7 141.1 289.7 138.1 302.3C141.2 313.5 145.5 309.3 149.3 308.7C152.2 319.5 153.9 311.6 154.1 306.4C167.7 309.3 164.4 317.3 168.7 323C178 327.2 155.4 294.4 171.4 313.1C188.2 328.3 177.7 334.6 162.5 332.2C172.1 331.5 175.2 345.2 187.1 344.6C198 349.8 205.4 369.7 186.6 361.4C180.1 355.5 157 348.2 175.9 359.4C193.3 367.5 207.1 372.3 223.9 382.4C235.8 391 241.1 400.9 245.7 402.8C235.6 407.6 215.2 398.9 230.3 396.3C220.9 394.6 210.3 389.9 219.3 401.6C227 408 246.5 407.3 250 408C247 414.5 241.9 415 250.1 415.5C241.4 420.5 253.5 421.2 254.2 424ZM235.6 371.4C230 365.5 228.6 354.7 234.6 364.1C237.7 365.4 244.5 381.9 235.6 371.4ZM296.3 409.9C299.8 409.8 296.4 412.5 296.3 409.9V409.9ZM226.8 357.1C226.6 348.4 228.8 363.9 226.8 357.1V357.1ZM220.7 349C213.8 335.6 229.6 352.9 220.7 349V349ZM147.7 298.5C151.8 297.4 149.6 305.5 147.7 298.5V298.5ZM205.9 330.1C208.4 320.6 208.8 338.1 205.9 330.1V330.1ZM164.7 301.5C161.9 296.3 170.8 306.4 164.7 301.5V301.5ZM200 312.8C193.4 298 204.7 304.7 201.5 315.3L200 312.8ZM139.2 272.2C136.3 267.4 131.4 253.1 133 248.8C134.4 255.8 148 279.3 139.7 258.5C130.5 241.1 150.8 264.1 152.9 268.5C153.9 272.8 147.2 267.3 151.6 277.4C143.3 265.8 146.7 283.8 139.2 272.2ZM120.3 259.2C121.1 248 124.6 267 120.3 259.2V259.2ZM128.8 262.2C132.8 253.6 135.6 274.1 128.8 262.2V262.2ZM108.5 246.4C101.5 239.4 96.4 233 108.8 242.1C113.6 242.2 98.3 227.5 110 237.4C122.3 239.7 116 257.7 108.5 246.4ZM119.2 246.1C123.3 242.1 121.3 250.1 119.2 246.1V246.1ZM125.8 248.3C119.6 236.7 133.2 253.1 125.8 248.3V248.3ZM112.6 235.8C92.2 217.7 138.2 245.3 115.9 239.2L112.6 235.8ZM171 269.7C162.1 264.4 168.7 232.5 171.7 254.3C180.3 251.5 171.2 265.6 177.6 265.4C176.6 274.3 173.7 277.5 171 269.7ZM192.5 282.4C193.4 272.8 194.4 289 192.5 282.4V282.4ZM188.8 278.7C189.8 274.6 188.9 283.5 188.8 278.7V278.7ZM116.7 229.8C103.6 211.7 154.7 248 125.1 234.3C121.9 233.6 118.2 233.3 116.7 229.8ZM158.2 251.9C156.9 236.6 161 254.3 158.2 251.9V251.9ZM189.8 272.1C192.2 263.4 189.9 277.8 189.8 272.1V272.1ZM118.6 222.9C126.4 221.2 150.8 236.5 128.3 227.3C125.9 224.5 120.6 225.8 118.6 222.9ZM185.4 256.2C186.3 240.7 190.1 246.9 185.5 258.4L185.4 256.2ZM124.4 217.5C127.5 212.9 116 196.5 126.1 211.6C130.4 215 138.7 217.4 131.4 218.9C142.9 229 128.6 221.6 124.4 217.5ZM182.1 251.3C184.3 233.6 184.1 261.7 182.1 251.3V251.3ZM117.8 201.2C120.3 200.1 119.1 204.4 117.8 201.2V201.2ZM132.9 210.1C136.7 202 140 219.2 132.9 210.1V210.1ZM175.3 233.8C175.3 230.6 176.1 238.2 175.3 233.8V233.8ZM172.8 228.3C167 213.8 178.3 236 172.8 228.3V228.3ZM169.2 218.8C168.2 212.7 172.6 226.3 169.2 218.8V218.8ZM175.1 209.2C171.1 202.1 180.2 177.9 181.2 192.9C177 204.6 180 211.2 183 195.5C188.4 183 181.8 219.9 175.1 209.2ZM181.1 173.1C182.9 170.9 181.6 175.7 181.1 173.1V173.1ZM171.1 372.1C168.7 370 171.4 373.4 171.1 372.1V372.1ZM191.9 382.6C203.4 385.6 203.4 380.8 192.9 379.5C187.3 374.2 169.5 368.7 185.4 378.8C186.5 381.4 189.8 381.3 191.9 382.6ZM150.8 355.3C157.2 360.1 174.7 368.8 159.8 357.1C164.8 351.3 150.2 348.2 155 344.3C142.7 336.7 145.3 337.4 154 337.6C139.1 330.9 156.1 331.4 155.3 328C149.5 326.9 126.8 317.9 140.2 328.7C126.6 321.8 136.9 331.3 132.8 330.3C118.9 326.5 145.2 340.9 130.6 337.3C138.6 343.6 152.1 353.5 134 344C131.6 347.5 147 352.7 150.8 355.3ZM172.6 367.9C199 376.4 159.6 357.4 172.6 367.9V367.9ZM283.9 435.3C284.2 430 280.3 439.8 283.9 435.3V435.3ZM295.4 440.1C301.5 434.2 295.6 449.5 305.5 438.6C305.6 430.8 305.2 426.2 294.2 435.7C291 437.4 289.7 444.6 295.4 440.1ZM113.6 326C111.8 318.6 100.5 318.6 113.6 326V326ZM125.8 334C121.3 326.5 109.6 327.2 125.8 334V334ZM195.4 376C202.2 382 226.6 380.4 203.7 376.7C200.2 371.7 182.1 372.9 195.4 376ZM291 435C301.5 426.2 280.9 438.9 291 435V435ZM312.7 449.9C312.8 447.1 308.2 451.1 312.7 449.9V449.9ZM312.7 446C324.3 433.7 301.5 446.7 312.7 446V446ZM83.6 300.9C73.7 286.8 77.4 280.5 67.9 269C66.1 260.1 51.6 240.2 60.4 261.4C68.5 273.7 70.9 292.8 83.6 300.9ZM309.1 442C330.4 428.3 300.4 436.1 309.1 442V442ZM325.4 448.4C336.1 439.3 318.7 446.5 325.4 448.4V448.4ZM110 310.4C113.1 305.9 102.2 309.9 110 310.4V310.4ZM322 444.1C332.3 437.4 319.7 438.5 320.2 444.7L322 444.1ZM181.9 355.8C181.6 351.3 176.4 356.1 181.9 355.8V355.8ZM190.6 360.8C187.8 355.2 186.3 361.6 190.6 360.8V360.8ZM338.6 448.6C351.8 439 330.5 446.7 335.8 450.4L338.6 448.6ZM333.5 446.2C344.3 437.1 322.1 450.2 333.5 446.2V446.2ZM359.4 463.4C366.6 458.5 350.6 461.8 359.4 463.4V463.4ZM116.7 307.2C126.4 309.4 155.4 331.1 138.3 308.7C129.5 306.1 134.8 284.6 125.8 288.4C131.8 298.4 130.8 302.8 118.2 296.4C102.3 288.7 109.3 300.3 112.3 303.4C108.1 304.4 117.9 307.1 116.7 307.2ZM72.5 272.3C74.2 265.1 56.5 232.8 64.1 256.1C66.9 260.9 66.6 270.2 72.5 272.3ZM153.5 322.3C148.5 318.1 153.3 321.7 153.5 322.3V322.3ZM165.8 325.2C165.8 317.5 152.3 322.1 165.8 325.2V325.2ZM272.4 392.3C270.3 387.1 264.3 392.2 272.4 392.3V392.3ZM277.5 396.1C276.8 393.1 274.6 396.6 277.5 396.1V396.1ZM319.7 422.6C323.8 419.6 314.7 422.3 319.7 422.6V422.6ZM94.6 277.9C106.2 273.4 82.1 274.7 94.6 277.9V277.9ZM263 384C262.9 376.5 255.6 385.9 263 384V384ZM89.9 267.2C97.4 264.7 83.1 265.5 89.9 267.2V267.2ZM111.6 277.7C111.5 275.2 109.3 278.7 111.6 277.7V277.7ZM375.8 439.7C385.4 437.8 407.3 444.6 410.8 437.1C399.2 436.9 370.4 428.9 369.1 439L371.7 439.4L375.8 439.7ZM118.5 279.5C118.6 271.8 112.6 279.2 118.5 279.5V279.5ZM61.5 239.9C59 225.4 51.7 237.7 61.5 239.9V239.9ZM75.1 243.4C75.3 238.7 62.7 239.1 75.1 243.4V243.4ZM82.9 247.2C80.6 245.3 81.2 249.4 82.9 247.2V247.2ZM131.7 278.4C134 276.4 126.3 276.9 131.7 278.4V278.4ZM77.7 238.6C76.4 227.6 62 236.9 77.7 238.6V238.6ZM49.9 220.5C49.5 215.5 47.2 222.4 49.9 220.5V220.5ZM54 217.4C53.3 211.4 50.5 218.1 54 217.4V217.4ZM76.9 231.1C86.6 227.3 59.3 223.2 74.9 230.4L76.9 231.1ZM383.1 420.2C389.3 414.5 375.3 418.4 383.1 420.2V420.2ZM420.2 439.3C422.6 432 413.9 440.3 420.2 439.3V439.3ZM79.2 219C80.3 211.9 71.5 220.4 79.2 219V219ZM46.7 197.2C44.9 187.2 45.2 169.6 61.9 175.5C39.6 180 77.4 203.3 72.6 184.9C82 185.3 91 179.3 86 188.5C104.5 186.4 117.3 170.4 135.2 172.6C149.1 170.8 164.3 169.4 179.4 163.8C191.7 162.8 203.6 149.6 196.8 141.8C180 140.3 162.4 142.5 143.8 146.1C123.2 150.4 104.5 158.5 83.7 162.1C63.4 164.8 87.7 169.6 81.9 170.7C71.4 174.4 94.5 176.9 80.5 180.7C72 179 63 176 66.6 166.9C47.2 169.4 30.1 177.5 45.5 197.2H46.7ZM93.5 173.4C98 156.6 117.9 187.2 101 175.6C98.9 174.1 95.6 172.9 93.5 173.4ZM94.3 165.3C100.9 160.5 97.8 168 94.3 165.3V165.3ZM102.7 165.4C103.3 157.7 121.7 169.5 105.7 168.2L102.7 165.4ZM114 160.8C118.2 156 115.3 165.2 114 160.8V160.8ZM117 158.9C124 150.5 156.3 153.6 132.6 158.1C126.3 153.4 121.4 160.9 117 158.9ZM159.2 152.4C158.1 129.6 180.2 160.5 159.2 152.4V152.4ZM171.2 152.3C175.6 140.8 188.2 147.7 173.3 150C173.5 151.2 172.8 155.9 171.2 152.3ZM74.5 213.2C87.6 205.1 60.7 206.2 74.5 213.2V213.2ZM84.1 215.9C88.8 211 74.2 213.8 84.1 215.9V215.9ZM55.7 195.6C63.1 189.9 46.9 193.4 55.7 195.6V195.6ZM442 437.3C442.2 430.6 436.3 440.3 442 437.3V437.3ZM402.7 410.5C403.8 402.8 397.7 411.2 402.7 410.5V410.5ZM452.8 439.9C463.3 439.9 484.4 436.7 461.7 436.7C458.1 437.2 440.9 437.1 452.8 439.9ZM92.6 211.1C101.1 210.5 105.9 201.8 91 202.3C67.9 199.9 111.3 210.1 88.1 207.2C85 209.3 92.5 211.7 92.6 211.1ZM100.1 214.9C99.2 209.4 97.5 217.8 100.1 214.9V214.9ZM108.9 191.4C112.7 186.8 103.9 190.1 108.9 191.4V191.4ZM80.8 144.4C96 139.3 116.6 133.5 123.7 146.9C116.4 138.2 120.8 129.6 127.7 142.4C137.4 155.4 142.2 136.5 135.9 132.2C143.1 141.1 151.2 145.3 140.7 132.7C152.1 119 117.8 134.5 109.9 134.4C106.2 136 71.1 143.2 80.8 144.4ZM89.6 127.4C98.2 120.9 119.4 131.2 105.8 120.9C104.6 119.8 76.1 128.7 89.6 127.4ZM121.1 128.7C131.2 129 116.8 115.2 128.8 121.4C126.8 115 114.8 113.7 108.9 111.1C105.5 117.1 115.6 128.7 121.1 128.7ZM95.2 100.2C98.7 95.4999 89.1 102.6 95.2 100.2V100.2ZM108 103.3C124.2 101.2 103.8 96.2999 104.7 103.2L108 103.3ZM84.1 84.4999C72.7 69.5999 105.6 87.0999 94 71.3999C84.1 63.5999 74.8 80.1999 84.1 84.4999ZM230.8 163.5C236.1 154.2 209.1 151 227.3 160.2C228.9 160.8 228.5 164.2 230.8 163.5Z" fill="black"/>
<path d="M165.5 424.9C148.4 411.3 130.1 398.5 117.6 380.2C91.3 348.2 71 311 57.1 271.9C48.7 246.6 45.9 219.3 35.1 194.9C23.8 177.3 37 157.8 56.4 152.2C65 150.5 80.3 142.4 61.9 148.2C45.4 160.2 43.9 137.2 60.7 135.8C72.2 134.3 76.4 124.8 72.5 116.4C60.2 108.3 102.5 99.4999 81.2 87.3999C59 63.4999 112.2 58.7999 99.1 85.9999C96 107 136.3 82.1999 126.9 106.4C136.4 118 162.5 109 161.8 125.3C175.7 126.3 180.5 137.9 193.4 138.8C207 145 231.3 149.7 235.9 164.9C222.5 175.5 191.5 143.1 190.1 172.4C194.1 215.7 193.1 260.3 208.9 301.5C216.4 326.5 234.6 346.2 251 365.6C266.7 384.7 287.9 398 309.6 409.4C328.6 418.3 349.2 424.3 369.9 428C378.3 421.6 393.1 397.7 406.2 407.8C406.8 419.1 380.2 431.5 404.9 430.2C419.4 425.8 429.5 441.4 441.5 427.3C452.5 440.3 487.3 418.9 479.5 445.7C468.9 452.5 453.4 448.4 442.7 457.8C425.2 449.1 411.2 465.6 391.8 463.6C370.3 467.4 348.3 469 326.5 469C290.7 466.1 254.1 465 219.9 452.5C201.1 446.7 182.4 435.8 165.5 424.9ZM195.7 438C214.4 446.1 232.8 454.6 253.4 457.3C286 461.8 319.7 468.8 352.4 462.4C337.6 455.7 322.2 465 307.5 457.6C289.8 461.4 270.8 456.6 252.8 454.3C232.4 445.2 210.3 438.9 191.1 427C167.2 418.3 203.5 438.2 210 439.9C224.9 448.4 193.5 435.5 189.1 432C176.6 425 175 426.4 187.8 433.5C190.4 435.1 193 436.7 195.7 438ZM160 412.8C178.2 419.5 159.9 400.1 151.6 401.2C147.9 394.8 137.5 390.7 144.9 387.4C131.6 391.9 131.1 370 124.8 373C110.8 368.6 119.4 353 102.8 343.4C101.3 333.3 86.2 324.5 81.4 309.2C79.3 301.4 64.5 279 73.6 299.8C81.4 319.9 95.1 337.1 106.4 354.4C115.3 370.7 125.7 387.9 141.8 398C147.1 403.2 152.3 411.2 160 412.8ZM107.7 355.3C108.3 352.6 110.9 361.2 107.7 355.3V355.3ZM181.8 420.8C185.8 419.1 176 418.6 181.8 420.8V420.8ZM191.7 424.5C190.6 419.5 187.1 427.2 191.7 424.5V424.5ZM204 429.6C209.9 424 195 426.1 204 429.6V429.6ZM225.2 441.4C228.8 436.1 213.7 439.4 225.2 441.4V441.4ZM184.6 413.1C193.6 407.1 172.7 413 184.6 413.1V413.1ZM193.8 417.7C193.6 414.5 190.5 419.1 193.8 417.7V417.7ZM240.1 446.6C247.6 451.3 283.6 456.9 261.1 448.5C257.3 449.3 219.2 437.7 240.1 446.6ZM166.6 389.3C165.9 386.2 155 385.8 166.6 389.3V389.3ZM188.1 401.8C193.8 398 176.5 398.8 188.1 401.8V401.8ZM206.3 413C214.4 410 193.2 409.9 206.3 413V413ZM157.8 379.7C166.5 386.4 193 380.6 171.2 375.7C161.2 370.4 138.8 366.8 154.1 378.8L157.8 379.7ZM218.5 416.9C222.2 410.6 203.3 413.3 218.5 416.9V416.9ZM200.1 402.1C221.5 408.2 182.2 388.6 194.8 399.9L197.7 401.2L200.1 402.1ZM237.1 423.5C257.3 423.8 218.8 420.7 237.1 423.5V423.5ZM150.1 368C149.3 364.3 145.1 368.4 150.1 368V368ZM271.3 442.7C271.9 435.9 264.8 447.8 271.3 442.7V442.7ZM184.6 389.2C183.3 385.6 178.3 389 184.6 389.2V389.2ZM152 365.7C163.5 365 136.1 360.5 152 365.7V365.7ZM113.3 340.7C111.9 335.1 100.7 330.7 113.3 340.7V340.7ZM214.7 405.1C212.6 402.6 213.7 405.6 214.7 405.1V405.1ZM277.8 443.8C277.6 440.1 274.4 445.2 277.8 443.8V443.8ZM209.2 399.4C210.3 394.5 199.2 397.9 209.2 399.4V399.4ZM162.1 369.5C170.7 368.6 148.3 363.7 162.1 369.5V369.5ZM241.7 418.9C255.1 413.6 228.5 416.3 241.7 418.9V418.9ZM200.3 390.9C215.8 392.9 181.8 380.4 196.9 389.8L200.3 390.9ZM254.2 424C268.7 415.3 263.9 444.3 278.8 426.4C293.5 415.7 266.1 439.7 284.2 428.3C297.2 419.6 316.6 432.5 328.7 436.7C337.5 436.3 346.1 444.3 355 439.4C372.4 434.7 321.2 432.5 334.6 424.2C318.8 428.8 307.1 418.7 299.3 408.5C281.5 404.4 261 395.3 252.1 379.6C248.4 373.7 257.3 380.5 249 370.8C238.3 361.3 233 350.4 225.8 338.9C217.2 334.4 216.2 320.9 215.3 338.5C215.4 327.4 204.9 319.9 202.4 323C202.3 312.3 213.5 317.7 205.7 309.7C204 298.6 198.4 287 196.8 274.5C194.2 268.5 196.4 255.6 187.9 269.2C184.8 283.6 186.9 251.5 191.7 262.1C198 251.3 189.4 252.5 189.1 254C193.2 244.8 191.7 231.9 188 236.8C190.2 227.1 191.5 201.1 184.7 205.8C188.8 195.7 192.5 159.4 174.7 173.3C167.4 173.4 155 175.9 149.1 178.9C167.6 189.1 147.2 182.6 139.7 181C138.7 190.4 131.3 186.3 122 186.4C136.9 188.2 114.7 201.6 106.2 196.4C95.1 201.7 115.8 214.9 106.4 219C107.6 225.2 89.5 216.8 90.9 231C80.1 226.5 89.4 247.9 94.8 240.7C113.1 245.6 107.7 256.9 108.1 267.7C105.2 273.9 93.4 253 105.5 253.9C96 238.4 95 248.3 87 255.5C85.2 256 107.3 265.8 93.4 270.6C105.6 272.4 105.9 283.1 108.3 289.9C115.6 297.6 114.2 281.5 123 290.7C117.4 282.5 93.6 267.6 112.7 272.4C112.6 264.2 109.3 257.5 115.1 257.7C121 247.2 109 283.7 122.1 270.3C125.8 268.7 126.6 259.8 133.2 271.1C142.6 280.5 136.6 287.2 123.2 278.6C125.5 286.7 141.1 289.7 138.1 302.3C141.2 313.5 145.5 309.3 149.3 308.7C152.2 319.5 153.9 311.6 154.1 306.4C167.7 309.3 164.4 317.3 168.7 323C178 327.2 155.4 294.4 171.4 313.1C188.2 328.3 177.7 334.6 162.5 332.2C172.1 331.5 175.2 345.2 187.1 344.6C198 349.8 205.4 369.7 186.6 361.4C180.1 355.5 157 348.2 175.9 359.4C193.3 367.5 207.1 372.3 223.9 382.4C235.8 391 241.1 400.9 245.7 402.8C235.6 407.6 215.2 398.9 230.3 396.3C220.9 394.6 210.3 389.9 219.3 401.6C227 408 246.5 407.3 250 408C247 414.5 241.9 415 250.1 415.5C241.4 420.5 253.5 421.2 254.2 424ZM235.6 371.4C230 365.5 228.6 354.7 234.6 364.1C237.7 365.4 244.5 381.9 235.6 371.4ZM296.3 409.9C299.8 409.8 296.4 412.5 296.3 409.9V409.9ZM226.8 357.1C226.6 348.4 228.8 363.9 226.8 357.1V357.1ZM220.7 349C213.8 335.6 229.6 352.9 220.7 349V349ZM147.7 298.5C151.8 297.4 149.6 305.5 147.7 298.5V298.5ZM205.9 330.1C208.4 320.6 208.8 338.1 205.9 330.1V330.1ZM164.7 301.5C161.9 296.3 170.8 306.4 164.7 301.5V301.5ZM200 312.8C193.4 298 204.7 304.7 201.5 315.3L200 312.8ZM139.2 272.2C136.3 267.4 131.4 253.1 133 248.8C134.4 255.8 148 279.3 139.7 258.5C130.5 241.1 150.8 264.1 152.9 268.5C153.9 272.8 147.2 267.3 151.6 277.4C143.3 265.8 146.7 283.8 139.2 272.2ZM120.3 259.2C121.1 248 124.6 267 120.3 259.2V259.2ZM128.8 262.2C132.8 253.6 135.6 274.1 128.8 262.2V262.2ZM108.5 246.4C101.5 239.4 96.4 233 108.8 242.1C113.6 242.2 98.3 227.5 110 237.4C122.3 239.7 116 257.7 108.5 246.4ZM119.2 246.1C123.3 242.1 121.3 250.1 119.2 246.1V246.1ZM125.8 248.3C119.6 236.7 133.2 253.1 125.8 248.3V248.3ZM112.6 235.8C92.2 217.7 138.2 245.3 115.9 239.2L112.6 235.8ZM171 269.7C162.1 264.4 168.7 232.5 171.7 254.3C180.3 251.5 171.2 265.6 177.6 265.4C176.6 274.3 173.7 277.5 171 269.7ZM192.5 282.4C193.4 272.8 194.4 289 192.5 282.4V282.4ZM188.8 278.7C189.8 274.6 188.9 283.5 188.8 278.7V278.7ZM116.7 229.8C103.6 211.7 154.7 248 125.1 234.3C121.9 233.6 118.2 233.3 116.7 229.8ZM158.2 251.9C156.9 236.6 161 254.3 158.2 251.9V251.9ZM189.8 272.1C192.2 263.4 189.9 277.8 189.8 272.1V272.1ZM118.6 222.9C126.4 221.2 150.8 236.5 128.3 227.3C125.9 224.5 120.6 225.8 118.6 222.9ZM185.4 256.2C186.3 240.7 190.1 246.9 185.5 258.4L185.4 256.2ZM124.4 217.5C127.5 212.9 116 196.5 126.1 211.6C130.4 215 138.7 217.4 131.4 218.9C142.9 229 128.6 221.6 124.4 217.5ZM182.1 251.3C184.3 233.6 184.1 261.7 182.1 251.3V251.3ZM117.8 201.2C120.3 200.1 119.1 204.4 117.8 201.2V201.2ZM132.9 210.1C136.7 202 140 219.2 132.9 210.1V210.1ZM175.3 233.8C175.3 230.6 176.1 238.2 175.3 233.8V233.8ZM172.8 228.3C167 213.8 178.3 236 172.8 228.3V228.3ZM169.2 218.8C168.2 212.7 172.6 226.3 169.2 218.8V218.8ZM175.1 209.2C171.1 202.1 180.2 177.9 181.2 192.9C177 204.6 180 211.2 183 195.5C188.4 183 181.8 219.9 175.1 209.2ZM181.1 173.1C182.9 170.9 181.6 175.7 181.1 173.1V173.1ZM171.1 372.1C168.7 370 171.4 373.4 171.1 372.1V372.1ZM191.9 382.6C203.4 385.6 203.4 380.8 192.9 379.5C187.3 374.2 169.5 368.7 185.4 378.8C186.5 381.4 189.8 381.3 191.9 382.6ZM150.8 355.3C157.2 360.1 174.7 368.8 159.8 357.1C164.8 351.3 150.2 348.2 155 344.3C142.7 336.7 145.3 337.4 154 337.6C139.1 330.9 156.1 331.4 155.3 328C149.5 326.9 126.8 317.9 140.2 328.7C126.6 321.8 136.9 331.3 132.8 330.3C118.9 326.5 145.2 340.9 130.6 337.3C138.6 343.6 152.1 353.5 134 344C131.6 347.5 147 352.7 150.8 355.3ZM172.6 367.9C199 376.4 159.6 357.4 172.6 367.9V367.9ZM283.9 435.3C284.2 430 280.3 439.8 283.9 435.3V435.3ZM295.4 440.1C301.5 434.2 295.6 449.5 305.5 438.6C305.6 430.8 305.2 426.2 294.2 435.7C291 437.4 289.7 444.6 295.4 440.1ZM113.6 326C111.8 318.6 100.5 318.6 113.6 326V326ZM125.8 334C121.3 326.5 109.6 327.2 125.8 334V334ZM195.4 376C202.2 382 226.6 380.4 203.7 376.7C200.2 371.7 182.1 372.9 195.4 376ZM291 435C301.5 426.2 280.9 438.9 291 435V435ZM312.7 449.9C312.8 447.1 308.2 451.1 312.7 449.9V449.9ZM312.7 446C324.3 433.7 301.5 446.7 312.7 446V446ZM83.6 300.9C73.7 286.8 77.4 280.5 67.9 269C66.1 260.1 51.6 240.2 60.4 261.4C68.5 273.7 70.9 292.8 83.6 300.9ZM309.1 442C330.4 428.3 300.4 436.1 309.1 442V442ZM325.4 448.4C336.1 439.3 318.7 446.5 325.4 448.4V448.4ZM110 310.4C113.1 305.9 102.2 309.9 110 310.4V310.4ZM322 444.1C332.3 437.4 319.7 438.5 320.2 444.7L322 444.1ZM181.9 355.8C181.6 351.3 176.4 356.1 181.9 355.8V355.8ZM190.6 360.8C187.8 355.2 186.3 361.6 190.6 360.8V360.8ZM338.6 448.6C351.8 439 330.5 446.7 335.8 450.4L338.6 448.6ZM333.5 446.2C344.3 437.1 322.1 450.2 333.5 446.2V446.2ZM359.4 463.4C366.6 458.5 350.6 461.8 359.4 463.4V463.4ZM116.7 307.2C126.4 309.4 155.4 331.1 138.3 308.7C129.5 306.1 134.8 284.6 125.8 288.4C131.8 298.4 130.8 302.8 118.2 296.4C102.3 288.7 109.3 300.3 112.3 303.4C108.1 304.4 117.9 307.1 116.7 307.2ZM72.5 272.3C74.2 265.1 56.5 232.8 64.1 256.1C66.9 260.9 66.6 270.2 72.5 272.3ZM153.5 322.3C148.5 318.1 153.3 321.7 153.5 322.3V322.3ZM165.8 325.2C165.8 317.5 152.3 322.1 165.8 325.2V325.2ZM272.4 392.3C270.3 387.1 264.3 392.2 272.4 392.3V392.3ZM277.5 396.1C276.8 393.1 274.6 396.6 277.5 396.1V396.1ZM319.7 422.6C323.8 419.6 314.7 422.3 319.7 422.6V422.6ZM94.6 277.9C106.2 273.4 82.1 274.7 94.6 277.9V277.9ZM263 384C262.9 376.5 255.6 385.9 263 384V384ZM89.9 267.2C97.4 264.7 83.1 265.5 89.9 267.2V267.2ZM111.6 277.7C111.5 275.2 109.3 278.7 111.6 277.7V277.7ZM375.8 439.7C385.4 437.8 407.3 444.6 410.8 437.1C399.2 436.9 370.4 428.9 369.1 439L371.7 439.4L375.8 439.7ZM118.5 279.5C118.6 271.8 112.6 279.2 118.5 279.5V279.5ZM61.5 239.9C59 225.4 51.7 237.7 61.5 239.9V239.9ZM75.1 243.4C75.3 238.7 62.7 239.1 75.1 243.4V243.4ZM82.9 247.2C80.6 245.3 81.2 249.4 82.9 247.2V247.2ZM131.7 278.4C134 276.4 126.3 276.9 131.7 278.4V278.4ZM77.7 238.6C76.4 227.6 62 236.9 77.7 238.6V238.6ZM49.9 220.5C49.5 215.5 47.2 222.4 49.9 220.5V220.5ZM54 217.4C53.3 211.4 50.5 218.1 54 217.4V217.4ZM76.9 231.1C86.6 227.3 59.3 223.2 74.9 230.4L76.9 231.1ZM383.1 420.2C389.3 414.5 375.3 418.4 383.1 420.2V420.2ZM420.2 439.3C422.6 432 413.9 440.3 420.2 439.3V439.3ZM79.2 219C80.3 211.9 71.5 220.4 79.2 219V219ZM46.7 197.2C44.9 187.2 45.2 169.6 61.9 175.5C39.6 180 77.4 203.3 72.6 184.9C82 185.3 91 179.3 86 188.5C104.5 186.4 117.3 170.4 135.2 172.6C149.1 170.8 164.3 169.4 179.4 163.8C191.7 162.8 203.6 149.6 196.8 141.8C180 140.3 162.4 142.5 143.8 146.1C123.2 150.4 104.5 158.5 83.7 162.1C63.4 164.8 87.7 169.6 81.9 170.7C71.4 174.4 94.5 176.9 80.5 180.7C72 179 63 176 66.6 166.9C47.2 169.4 30.1 177.5 45.5 197.2H46.7ZM93.5 173.4C98 156.6 117.9 187.2 101 175.6C98.9 174.1 95.6 172.9 93.5 173.4ZM94.3 165.3C100.9 160.5 97.8 168 94.3 165.3V165.3ZM102.7 165.4C103.3 157.7 121.7 169.5 105.7 168.2L102.7 165.4ZM114 160.8C118.2 156 115.3 165.2 114 160.8V160.8ZM117 158.9C124 150.5 156.3 153.6 132.6 158.1C126.3 153.4 121.4 160.9 117 158.9ZM159.2 152.4C158.1 129.6 180.2 160.5 159.2 152.4V152.4ZM171.2 152.3C175.6 140.8 188.2 147.7 173.3 150C173.5 151.2 172.8 155.9 171.2 152.3ZM74.5 213.2C87.6 205.1 60.7 206.2 74.5 213.2V213.2ZM84.1 215.9C88.8 211 74.2 213.8 84.1 215.9V215.9ZM55.7 195.6C63.1 189.9 46.9 193.4 55.7 195.6V195.6ZM442 437.3C442.2 430.6 436.3 440.3 442 437.3V437.3ZM402.7 410.5C403.8 402.8 397.7 411.2 402.7 410.5V410.5ZM452.8 439.9C463.3 439.9 484.4 436.7 461.7 436.7C458.1 437.2 440.9 437.1 452.8 439.9ZM92.6 211.1C101.1 210.5 105.9 201.8 91 202.3C67.9 199.9 111.3 210.1 88.1 207.2C85 209.3 92.5 211.7 92.6 211.1ZM100.1 214.9C99.2 209.4 97.5 217.8 100.1 214.9V214.9ZM108.9 191.4C112.7 186.8 103.9 190.1 108.9 191.4V191.4ZM80.8 144.4C96 139.3 116.6 133.5 123.7 146.9C116.4 138.2 120.8 129.6 127.7 142.4C137.4 155.4 142.2 136.5 135.9 132.2C143.1 141.1 151.2 145.3 140.7 132.7C152.1 119 117.8 134.5 109.9 134.4C106.2 136 71.1 143.2 80.8 144.4ZM89.6 127.4C98.2 120.9 119.4 131.2 105.8 120.9C104.6 119.8 76.1 128.7 89.6 127.4ZM121.1 128.7C131.2 129 116.8 115.2 128.8 121.4C126.8 115 114.8 113.7 108.9 111.1C105.5 117.1 115.6 128.7 121.1 128.7ZM95.2 100.2C98.7 95.4999 89.1 102.6 95.2 100.2V100.2ZM108 103.3C124.2 101.2 103.8 96.2999 104.7 103.2L108 103.3ZM84.1 84.4999C72.7 69.5999 105.6 87.0999 94 71.3999C84.1 63.5999 74.8 80.1999 84.1 84.4999ZM230.8 163.5C236.1 154.2 209.1 151 227.3 160.2C228.9 160.8 228.5 164.2 230.8 163.5Z" stroke="white" stroke-width="8" mask="url(#path-1-outside-1)"/>
</svg>
