<svg width="512" height="512" viewBox="0 0 512 512" fill="none" xmlns="http://www.w3.org/2000/svg">
<path d="M476.008 303.496C463.056 296.016 447.976 294.008 433.512 297.904C420.576 301.368 409.576 309.184 402.032 320.072L344 291.048V220.944L432.656 176.608C437.968 183.392 445.176 188.36 453.648 190.632C457.096 191.56 460.592 192.016 464.064 192.016C470.992 192.016 477.832 190.192 484 186.64C493.256 181.296 499.872 172.672 502.64 162.352C505.408 152.032 503.984 141.248 498.64 132C493.296 122.752 484.672 116.136 474.352 113.368C464.04 110.576 453.256 112.024 444 117.36C434.744 122.704 428.128 131.328 425.36 141.648C423.512 148.536 423.696 155.592 425.504 162.296L344 203.056V152H264V119.36C291.096 115.456 312 92.152 312 64C312 33.128 286.88 8 256 8C225.12 8 200 33.128 200 64C200 92.152 220.904 115.456 248 119.36V152H168V203.048L86.496 162.296C88.304 155.592 88.488 148.536 86.64 141.648C83.872 131.328 77.256 122.704 68 117.36C58.744 112.024 47.96 110.576 37.648 113.368C27.328 116.136 18.704 122.752 13.36 132C8.01599 141.248 6.59199 152.032 9.35999 162.352C12.128 172.672 18.744 181.296 28 186.64C34.168 190.192 41 192.016 47.936 192.016C51.416 192.016 54.912 191.56 58.352 190.632C66.824 188.36 74.032 183.392 79.336 176.608L168 220.936V291.04L109.96 320.056C102.424 309.168 91.416 301.352 78.48 297.888C64.032 294.008 48.944 296 35.984 303.48C9.24799 318.928 0.0479908 353.24 15.48 379.984C25.84 397.928 44.696 407.976 64.072 407.976C73.568 407.976 83.184 405.56 91.976 400.48C115.36 386.976 125.328 359.032 117.136 334.352L168 308.936V360H248V424.808C229.768 428.528 216 444.68 216 464C216 486.056 233.944 504 256 504C278.056 504 296 486.056 296 464C296 444.688 282.232 428.528 264 424.808V360H344V308.936L394.848 334.36C386.656 359.048 396.624 386.984 420.008 400.488C428.808 405.568 438.424 407.984 447.912 407.984C467.28 407.984 486.144 397.936 496.504 379.992C511.944 353.248 502.744 318.936 476.008 303.496ZM440.816 145.792C442.48 139.608 446.448 134.424 452 131.224C455.768 129.048 459.888 128.016 463.96 128.016C472.264 128.016 480.344 132.32 484.784 140.008C487.984 145.56 488.84 152.024 487.184 158.216C485.52 164.4 481.552 169.584 476 172.784C464.544 179.408 449.832 175.464 443.216 164C440.008 158.448 439.16 151.984 440.816 145.792ZM216 64C216 41.944 233.944 24 256 24C278.056 24 296 41.944 296 64C296 86.056 278.056 104 256 104C233.944 104 216 86.056 216 64ZM68.784 164C62.168 175.464 47.456 179.408 36 172.784C30.448 169.584 26.48 164.4 24.816 158.216C23.16 152.024 24.008 145.56 27.216 140.008C31.656 132.32 39.736 128.016 48.04 128.016C52.112 128.016 56.232 129.048 60 131.224C65.552 134.424 69.52 139.608 71.184 145.792C72.84 151.984 71.992 158.448 68.784 164ZM83.992 386.632C64.88 397.656 40.376 391.096 29.352 371.992C18.328 352.888 24.896 328.384 43.992 317.352C50.16 313.792 56.992 311.968 63.928 311.968C67.408 311.968 70.904 312.432 74.344 313.352C84.664 316.12 93.288 322.736 98.632 331.992C109.664 351.096 103.088 375.6 83.992 386.632ZM280 464C280 477.232 269.232 488 256 488C242.768 488 232 477.232 232 464C232 450.768 242.768 440 256 440C269.232 440 280 450.768 280 464ZM328 344H184V168H328V344ZM482.648 371.992C471.632 391.104 447.104 397.664 428.008 386.632C408.912 375.6 402.344 351.096 413.368 331.992C418.712 322.736 427.336 316.12 437.656 313.352C447.968 310.592 458.752 312 468.008 317.352C487.104 328.384 493.672 352.888 482.648 371.992Z" fill="white"/>
<path d="M312 216H264V232H232V248H200V296H312V216ZM216 264H232V280H216V264ZM248 280V248H264V280H248ZM296 280H280V232H296V280Z" fill="white"/>
</svg>
