<svg width="512" height="512" viewBox="0 0 512 512" fill="none" xmlns="http://www.w3.org/2000/svg">
<path d="M511.85 0H0.15C0.0671573 0 0 0.0671573 0 0.15V511.85C0 511.933 0.0671573 512 0.15 512H511.85C511.933 512 512 511.933 512 511.85V0.15C512 0.0671573 511.933 0 511.85 0Z" fill="#00ACD7"/>
<path d="M308 220C309 222 307 222 306 222L272 231C269 233 267 230 267 230C246 204 202 222 200 260C198 296 245 310 267 274H229C226 274 221 273 226 264L234 247C236 243 237 243 243 243H313C313 324 223 360 175 311C153 288 146 236 191 199C227 170 287 170 308 220ZM324 316C279 277 303 196 374 183C447 170 479 238 450 289C426 332 362 350 324 316ZM418 265C427 240 409 216 382 218C352 221 331 260 350 283C369 305 408 295 418 265ZM97 263V262L99 257L101 256H142L143 257L142 262L141 263H97ZM49 245C49 245 47 245 48 244L52 238L54 237H146L147 238L145 243L144 244L49 245ZM79 226L78 225L83 220L85 219H157V220L154 225L152 226H79Z" fill="white"/>
</svg>
