<svg width="512" height="600" viewBox="0 0 512 600" fill="none" xmlns="http://www.w3.org/2000/svg">
<mask id="path-1-outside-1" maskUnits="userSpaceOnUse" x="1" y="221.855" width="509" height="144" fill="black">
<rect fill="white" x="1" y="221.855" width="509" height="144"/>
<path d="M26.4423 313.32V312.902V249.177H40.4181V318.222C41.0675 323.786 40.5895 329.424 39.0126 334.8C37.4358 340.176 34.7923 345.179 31.24 349.511C24.6378 355.206 16.1784 358.285 7.46017 358.167L6 347.738C11.6234 347.741 17.0485 345.66 21.2274 341.897C24.9821 337.517 26.4423 331.572 26.4423 313.32ZM130.67 305.093C130.67 312.915 130.67 319.903 131.296 325.952H118.885L118.05 313.541C115.454 317.932 111.742 321.558 107.29 324.049C102.839 326.541 97.8068 327.809 92.7061 327.725C80.6076 327.725 66.2146 321.155 66.2146 294.35V249.815H80.1905V291.534C80.1905 306.032 84.6753 315.731 97.2953 315.731C99.8917 315.759 102.467 315.268 104.872 314.288C107.276 313.307 109.46 311.856 111.296 310.02C113.132 308.184 114.583 306 115.564 303.595C116.545 301.191 117.035 298.615 117.007 296.019V249.294H130.983V304.676L130.67 305.093ZM157.162 274.629C157.162 264.929 157.162 257.003 156.536 249.806H169.052L169.678 262.843C172.466 258.133 176.481 254.268 181.293 251.66C186.105 249.051 191.535 247.798 197.004 248.033C215.569 248.033 229.545 263.573 229.545 286.727C229.545 314.053 212.753 327.612 194.605 327.612C189.96 327.819 185.34 326.824 181.193 324.723C177.045 322.622 173.51 319.485 170.93 315.618V357.337H157.162V274.942V274.629ZM170.93 294.967C170.967 296.859 171.177 298.744 171.555 300.599C172.739 305.23 175.433 309.334 179.21 312.262C182.989 315.19 187.635 316.775 192.415 316.765C207.121 316.765 215.777 304.771 215.777 287.353C215.777 272.126 207.642 259.089 192.936 259.089C187.117 259.565 181.671 262.148 177.619 266.353C173.568 270.558 171.189 276.096 170.93 281.93V294.967ZM254.445 249.737L271.237 294.689C273.01 299.695 274.888 305.744 276.139 310.229C277.599 305.64 279.164 299.799 281.041 294.376L296.269 249.737H310.975L290.115 303.971C279.685 330.046 273.323 343.5 263.728 351.635C258.895 356.05 253.003 359.139 246.623 360.605L243.181 348.923C247.642 347.458 251.783 345.157 255.384 342.144C260.472 337.998 264.51 332.709 267.17 326.708C267.739 325.669 268.127 324.54 268.317 323.371C268.198 322.112 267.882 320.88 267.378 319.72L239.009 249.528H254.237L254.445 249.737ZM348.077 227.855V249.758H368.102V260.188H348.077V301.281C348.077 310.668 350.788 316.091 358.506 316.091C361.248 316.136 363.983 315.82 366.642 315.152L367.267 325.582C363.28 326.963 359.073 327.6 354.856 327.46C352.063 327.634 349.266 327.203 346.655 326.195C344.045 325.186 341.683 323.626 339.733 321.619C335.485 315.937 333.547 308.856 334.309 301.802V260.083H322.42V249.654H334.518V231.089L348.077 227.855ZM393.847 290.284C393.564 293.821 394.052 297.378 395.278 300.708C396.504 304.038 398.439 307.062 400.948 309.571C403.457 312.08 406.481 314.014 409.811 315.24C413.141 316.466 416.697 316.954 420.234 316.671C427.389 316.831 434.497 315.481 441.094 312.708L443.493 323.138C435.397 326.473 426.692 328.072 417.94 327.831C412.838 328.18 407.72 327.422 402.939 325.608C398.157 323.794 393.824 320.967 390.238 317.321C386.651 313.675 383.896 309.296 382.161 304.486C380.425 299.675 379.751 294.546 380.184 289.45C380.184 266.504 393.847 248.357 416.167 248.357C441.198 248.357 447.456 270.259 447.456 284.235C447.59 286.388 447.59 288.548 447.456 290.701H393.534L393.847 290.284ZM434.732 279.854C435.134 277.066 434.934 274.224 434.146 271.519C433.357 268.814 431.997 266.31 430.159 264.175C428.321 262.04 426.046 260.325 423.489 259.143C420.931 257.961 418.15 257.342 415.333 257.326C409.602 257.741 404.233 260.281 400.278 264.448C396.323 268.616 394.066 274.11 393.952 279.854H434.732ZM468.662 273.453C468.662 264.484 468.662 256.766 468.036 249.673H480.552V264.588H481.177C482.491 259.985 485.205 255.905 488.943 252.914C492.681 249.924 497.257 248.171 502.037 247.9C503.352 247.728 504.685 247.728 506 247.9V260.938C504.406 260.753 502.796 260.753 501.202 260.938C496.468 261.121 491.962 263.021 488.526 266.284C485.091 269.547 482.96 273.949 482.533 278.668C482.143 280.802 481.934 282.965 481.907 285.134V325.706H468.14V273.557L468.662 273.453Z"/>
</mask>
<path d="M26.4423 313.32V312.902V249.177H40.4181V318.222C41.0675 323.786 40.5895 329.424 39.0126 334.8C37.4358 340.176 34.7923 345.179 31.24 349.511C24.6378 355.206 16.1784 358.285 7.46017 358.167L6 347.738C11.6234 347.741 17.0485 345.66 21.2274 341.897C24.9821 337.517 26.4423 331.572 26.4423 313.32ZM130.67 305.093C130.67 312.915 130.67 319.903 131.296 325.952H118.885L118.05 313.541C115.454 317.932 111.742 321.558 107.29 324.049C102.839 326.541 97.8068 327.809 92.7061 327.725C80.6076 327.725 66.2146 321.155 66.2146 294.35V249.815H80.1905V291.534C80.1905 306.032 84.6753 315.731 97.2953 315.731C99.8917 315.759 102.467 315.268 104.872 314.288C107.276 313.307 109.46 311.856 111.296 310.02C113.132 308.184 114.583 306 115.564 303.595C116.545 301.191 117.035 298.615 117.007 296.019V249.294H130.983V304.676L130.67 305.093ZM157.162 274.629C157.162 264.929 157.162 257.003 156.536 249.806H169.052L169.678 262.843C172.466 258.133 176.481 254.268 181.293 251.66C186.105 249.051 191.535 247.798 197.004 248.033C215.569 248.033 229.545 263.573 229.545 286.727C229.545 314.053 212.753 327.612 194.605 327.612C189.96 327.819 185.34 326.824 181.193 324.723C177.045 322.622 173.51 319.485 170.93 315.618V357.337H157.162V274.942V274.629ZM170.93 294.967C170.967 296.859 171.177 298.744 171.555 300.599C172.739 305.23 175.433 309.334 179.21 312.262C182.989 315.19 187.635 316.775 192.415 316.765C207.121 316.765 215.777 304.771 215.777 287.353C215.777 272.126 207.642 259.089 192.936 259.089C187.117 259.565 181.671 262.148 177.619 266.353C173.568 270.558 171.189 276.096 170.93 281.93V294.967ZM254.445 249.737L271.237 294.689C273.01 299.695 274.888 305.744 276.139 310.229C277.599 305.64 279.164 299.799 281.041 294.376L296.269 249.737H310.975L290.115 303.971C279.685 330.046 273.323 343.5 263.728 351.635C258.895 356.05 253.003 359.139 246.623 360.605L243.181 348.923C247.642 347.458 251.783 345.157 255.384 342.144C260.472 337.998 264.51 332.709 267.17 326.708C267.739 325.669 268.127 324.54 268.317 323.371C268.198 322.112 267.882 320.88 267.378 319.72L239.009 249.528H254.237L254.445 249.737ZM348.077 227.855V249.758H368.102V260.188H348.077V301.281C348.077 310.668 350.788 316.091 358.506 316.091C361.248 316.136 363.983 315.82 366.642 315.152L367.267 325.582C363.28 326.963 359.073 327.6 354.856 327.46C352.063 327.634 349.266 327.203 346.655 326.195C344.045 325.186 341.683 323.626 339.733 321.619C335.485 315.937 333.547 308.856 334.309 301.802V260.083H322.42V249.654H334.518V231.089L348.077 227.855ZM393.847 290.284C393.564 293.821 394.052 297.378 395.278 300.708C396.504 304.038 398.439 307.062 400.948 309.571C403.457 312.08 406.481 314.014 409.811 315.24C413.141 316.466 416.697 316.954 420.234 316.671C427.389 316.831 434.497 315.481 441.094 312.708L443.493 323.138C435.397 326.473 426.692 328.072 417.94 327.831C412.838 328.18 407.72 327.422 402.939 325.608C398.157 323.794 393.824 320.967 390.238 317.321C386.651 313.675 383.896 309.296 382.161 304.486C380.425 299.675 379.751 294.546 380.184 289.45C380.184 266.504 393.847 248.357 416.167 248.357C441.198 248.357 447.456 270.259 447.456 284.235C447.59 286.388 447.59 288.548 447.456 290.701H393.534L393.847 290.284ZM434.732 279.854C435.134 277.066 434.934 274.224 434.146 271.519C433.357 268.814 431.997 266.31 430.159 264.175C428.321 262.04 426.046 260.325 423.489 259.143C420.931 257.961 418.15 257.342 415.333 257.326C409.602 257.741 404.233 260.281 400.278 264.448C396.323 268.616 394.066 274.11 393.952 279.854H434.732ZM468.662 273.453C468.662 264.484 468.662 256.766 468.036 249.673H480.552V264.588H481.177C482.491 259.985 485.205 255.905 488.943 252.914C492.681 249.924 497.257 248.171 502.037 247.9C503.352 247.728 504.685 247.728 506 247.9V260.938C504.406 260.753 502.796 260.753 501.202 260.938C496.468 261.121 491.962 263.021 488.526 266.284C485.091 269.547 482.96 273.949 482.533 278.668C482.143 280.802 481.934 282.965 481.907 285.134V325.706H468.14V273.557L468.662 273.453Z" fill="#4E4E4E"/>
<path d="M26.4423 313.32V312.902V249.177H40.4181V318.222C41.0675 323.786 40.5895 329.424 39.0126 334.8C37.4358 340.176 34.7923 345.179 31.24 349.511C24.6378 355.206 16.1784 358.285 7.46017 358.167L6 347.738C11.6234 347.741 17.0485 345.66 21.2274 341.897C24.9821 337.517 26.4423 331.572 26.4423 313.32ZM130.67 305.093C130.67 312.915 130.67 319.903 131.296 325.952H118.885L118.05 313.541C115.454 317.932 111.742 321.558 107.29 324.049C102.839 326.541 97.8068 327.809 92.7061 327.725C80.6076 327.725 66.2146 321.155 66.2146 294.35V249.815H80.1905V291.534C80.1905 306.032 84.6753 315.731 97.2953 315.731C99.8917 315.759 102.467 315.268 104.872 314.288C107.276 313.307 109.46 311.856 111.296 310.02C113.132 308.184 114.583 306 115.564 303.595C116.545 301.191 117.035 298.615 117.007 296.019V249.294H130.983V304.676L130.67 305.093ZM157.162 274.629C157.162 264.929 157.162 257.003 156.536 249.806H169.052L169.678 262.843C172.466 258.133 176.481 254.268 181.293 251.66C186.105 249.051 191.535 247.798 197.004 248.033C215.569 248.033 229.545 263.573 229.545 286.727C229.545 314.053 212.753 327.612 194.605 327.612C189.96 327.819 185.34 326.824 181.193 324.723C177.045 322.622 173.51 319.485 170.93 315.618V357.337H157.162V274.942V274.629ZM170.93 294.967C170.967 296.859 171.177 298.744 171.555 300.599C172.739 305.23 175.433 309.334 179.21 312.262C182.989 315.19 187.635 316.775 192.415 316.765C207.121 316.765 215.777 304.771 215.777 287.353C215.777 272.126 207.642 259.089 192.936 259.089C187.117 259.565 181.671 262.148 177.619 266.353C173.568 270.558 171.189 276.096 170.93 281.93V294.967ZM254.445 249.737L271.237 294.689C273.01 299.695 274.888 305.744 276.139 310.229C277.599 305.64 279.164 299.799 281.041 294.376L296.269 249.737H310.975L290.115 303.971C279.685 330.046 273.323 343.5 263.728 351.635C258.895 356.05 253.003 359.139 246.623 360.605L243.181 348.923C247.642 347.458 251.783 345.157 255.384 342.144C260.472 337.998 264.51 332.709 267.17 326.708C267.739 325.669 268.127 324.54 268.317 323.371C268.198 322.112 267.882 320.88 267.378 319.72L239.009 249.528H254.237L254.445 249.737ZM348.077 227.855V249.758H368.102V260.188H348.077V301.281C348.077 310.668 350.788 316.091 358.506 316.091C361.248 316.136 363.983 315.82 366.642 315.152L367.267 325.582C363.28 326.963 359.073 327.6 354.856 327.46C352.063 327.634 349.266 327.203 346.655 326.195C344.045 325.186 341.683 323.626 339.733 321.619C335.485 315.937 333.547 308.856 334.309 301.802V260.083H322.42V249.654H334.518V231.089L348.077 227.855ZM393.847 290.284C393.564 293.821 394.052 297.378 395.278 300.708C396.504 304.038 398.439 307.062 400.948 309.571C403.457 312.08 406.481 314.014 409.811 315.24C413.141 316.466 416.697 316.954 420.234 316.671C427.389 316.831 434.497 315.481 441.094 312.708L443.493 323.138C435.397 326.473 426.692 328.072 417.94 327.831C412.838 328.18 407.72 327.422 402.939 325.608C398.157 323.794 393.824 320.967 390.238 317.321C386.651 313.675 383.896 309.296 382.161 304.486C380.425 299.675 379.751 294.546 380.184 289.45C380.184 266.504 393.847 248.357 416.167 248.357C441.198 248.357 447.456 270.259 447.456 284.235C447.59 286.388 447.59 288.548 447.456 290.701H393.534L393.847 290.284ZM434.732 279.854C435.134 277.066 434.934 274.224 434.146 271.519C433.357 268.814 431.997 266.31 430.159 264.175C428.321 262.04 426.046 260.325 423.489 259.143C420.931 257.961 418.15 257.342 415.333 257.326C409.602 257.741 404.233 260.281 400.278 264.448C396.323 268.616 394.066 274.11 393.952 279.854H434.732ZM468.662 273.453C468.662 264.484 468.662 256.766 468.036 249.673H480.552V264.588H481.177C482.491 259.985 485.205 255.905 488.943 252.914C492.681 249.924 497.257 248.171 502.037 247.9C503.352 247.728 504.685 247.728 506 247.9V260.938C504.406 260.753 502.796 260.753 501.202 260.938C496.468 261.121 491.962 263.021 488.526 266.284C485.091 269.547 482.96 273.949 482.533 278.668C482.143 280.802 481.934 282.965 481.907 285.134V325.706H468.14V273.557L468.662 273.453Z" stroke="white" stroke-width="8" mask="url(#path-1-outside-1)"/>
<path d="M421.959 79.3575L422.242 77.3776L421.959 79.3575C429.301 80.4071 436.79 79.2475 443.471 76.0262L442.604 74.2283L443.471 76.0262C450.151 72.8048 455.722 67.6677 459.473 61.2692C463.222 54.874 464.984 47.508 464.534 40.1087C464.293 35.2501 463.094 30.4869 461.007 26.0926C458.919 21.6946 455.981 17.7529 452.364 14.4942L452.364 14.4942C448.746 11.2355 444.52 8.72403 439.929 7.10425C435.341 5.48576 430.479 4.78942 425.622 5.05515C418.216 5.37744 411.073 7.89574 405.103 12.2897L406.166 13.7337L405.103 12.2897C399.129 16.686 394.6 22.7611 392.091 29.7408C389.582 36.7205 389.208 44.2891 391.016 51.4823C392.824 58.6756 396.732 65.1678 402.242 70.132C407.753 75.0963 414.617 78.3077 421.959 79.3575Z" fill="#767677" stroke="white" stroke-width="4"/>
<path d="M256.303 448.709C162.436 448.709 79.9362 415.02 37.2786 365.271C53.8298 410.026 83.6948 448.637 122.853 475.907C162.012 503.176 208.586 517.794 256.303 517.794C304.021 517.794 350.594 503.176 389.753 475.907C428.911 448.637 458.776 410.026 475.328 365.271C432.775 415.02 350.588 448.709 256.303 448.709Z" fill="#F37726"/>
<path d="M256.303 125.2C350.171 125.2 432.671 158.889 475.328 208.638C458.776 163.883 428.911 125.272 389.753 98.0024C350.594 70.7332 304.021 56.1147 256.303 56.1147C208.586 56.1147 162.012 70.7332 122.853 98.0024C83.6948 125.272 53.8298 163.883 37.2786 208.638C79.9362 158.784 162.019 125.2 256.303 125.2Z" fill="#F37726"/>
<path d="M122.807 571.782L121.187 570.835L122.807 571.782C127.469 563.808 129.652 554.627 129.079 545.408C128.757 539.362 127.248 533.438 124.637 527.975C122.025 522.509 118.362 517.611 113.856 513.561L112.569 514.993L113.856 513.561C109.351 509.511 104.091 506.389 98.379 504.372L97.7788 506.072L98.379 504.372C92.6693 502.356 86.6187 501.485 80.5724 501.807C71.3449 502.216 62.4478 505.362 55.0139 510.844L56.1734 512.417L55.0139 510.844C47.5776 516.328 41.9422 523.902 38.8256 532.6L40.7016 533.272L38.8256 532.6C35.7091 541.299 35.2525 550.728 37.5141 559.687L39.084 559.29L37.5141 559.687C39.7758 568.645 44.6531 576.728 51.5249 582.905C58.3966 589.082 66.9516 593.073 76.0999 594.37L76.3629 592.516L76.0999 594.37C85.2481 595.668 94.5755 594.212 102.894 590.19C111.212 586.167 118.144 579.759 122.807 571.782Z" fill="#9E9E9E" stroke="white" stroke-width="4"/>
<path d="M27.022 69.3415C23.2998 73.3283 20.8397 78.3267 19.9508 83.708C19.0619 89.0894 19.7841 94.6134 22.0264 99.5855L22.0264 99.5855C24.2687 104.557 27.931 108.755 32.5529 111.652L32.5529 111.652C37.1748 114.548 42.5498 116.012 48.0019 115.862L48.0141 115.862L48.0262 115.861C55.3859 115.568 62.3332 112.384 67.3596 107C72.386 101.617 75.0858 94.4672 74.873 87.1048L74.8726 87.0926L74.8721 87.0805C74.6484 81.6308 72.8182 76.369 69.6118 71.9567C66.4055 67.5444 61.9661 64.1787 56.852 62.2827L56.2139 64.0038L56.852 62.2827C51.7377 60.3868 46.1772 60.0454 40.8696 61.3014C35.5619 62.5573 30.7441 65.3546 27.022 69.3415ZM27.022 69.3415L28.4839 70.7063M27.022 69.3415L28.4839 70.7063M28.4839 70.7063C31.9368 67.0078 36.4063 64.4128 41.3302 63.2476L47.9467 113.863C42.8888 114.002 37.9025 112.643 33.6148 109.957C29.3272 107.27 25.9297 103.376 23.8495 98.7632C21.7694 94.1507 21.0995 89.0262 21.9241 84.034C22.7487 79.0418 25.0309 74.4048 28.4839 70.7063Z" fill="#616262" stroke="white" stroke-width="4"/>
</svg>
