<svg width="512" height="512" viewBox="0 0 512 512" fill="none" xmlns="http://www.w3.org/2000/svg">
<g clip-path="url(#clip0)">
<path d="M388.927 156.95H388.948V156.865L388.927 156.95Z" fill="black"/>
<path d="M441.581 378.625C477.122 378.625 490.264 353.836 502.616 316.673C515.416 278.401 514.861 241.58 502.616 192.556C493.805 157.249 477.144 130.604 441.581 130.604H395.778V184.812C395.778 226.86 360.109 262.295 319.448 262.295H197.378C163.992 262.295 136.344 290.86 136.344 324.353V440.705C136.344 473.836 165.144 493.271 197.378 502.764C235.992 514.071 273.154 516.119 319.426 502.764C350.168 493.847 380.461 475.884 380.461 440.705V394.177H258.498V378.647H441.581V378.625ZM327.085 425.153C339.757 425.153 350.061 435.564 350.061 448.364C350.061 461.292 339.778 471.681 327.085 471.681C314.498 471.681 304.109 461.164 304.109 448.364C304.237 435.436 314.541 425.153 327.085 425.153Z" fill="#F2BB30"/>
<path d="M73.4751 378.647H115.416V322.86C115.416 282.519 150.275 246.956 191.747 246.956H313.795C347.736 246.956 374.83 218.967 374.83 184.897V68.4601C374.83 35.3295 346.947 10.4975 313.795 4.92948C272.878 -1.83319 228.419 -1.44919 191.747 5.05748L191.768 5.03614C140.099 14.1668 130.755 33.2388 130.755 68.5455V115.073H252.931V130.625H84.9097C49.3684 130.625 18.2644 152.001 8.57908 192.577C-2.62092 239.105 -3.06892 268.119 8.57908 316.695C17.2404 352.812 37.9551 378.647 73.4751 378.647ZM184.11 83.9908C171.438 83.9908 161.134 73.5801 161.134 60.7801C161.283 47.8521 171.438 37.4628 184.11 37.4628C196.696 37.4628 207.086 47.9588 207.086 60.7801C207.086 73.6015 196.803 83.9908 184.11 83.9908Z" fill="#35668F"/>
</g>
<defs>
<clipPath id="clip0">
<rect width="512" height="512" fill="white"/>
</clipPath>
</defs>
</svg>
