<svg width="512" height="512" viewBox="0 0 512 512" fill="none" xmlns="http://www.w3.org/2000/svg">
<path d="M480.529 140.366C501.318 117.6 506.449 83.3279 493.298 55.0829C492.891 54.2082 492.278 53.4446 491.513 52.857C490.747 52.2693 489.852 51.875 488.901 51.7074C487.951 51.5398 486.974 51.6038 486.054 51.8941C485.134 52.1844 484.297 52.6923 483.615 53.3749L442.315 94.6899L416.629 68.9899L457.973 27.6269C458.653 26.9461 459.16 26.1115 459.45 25.1937C459.74 24.2759 459.805 23.3018 459.64 22.3536C459.474 21.4054 459.083 20.5109 458.499 19.7456C457.915 18.9804 457.156 18.3669 456.285 17.9569C441.852 11.2411 425.702 9.13027 410.028 11.911C394.354 14.6917 379.915 22.2292 368.673 33.4999C357.523 44.5689 350.037 58.7927 347.227 74.2509C346.484 78.363 345.508 82.4296 344.303 86.4309C333.915 81.4377 323.098 77.3881 311.985 74.3309L303.555 25.9699C303.313 24.5782 302.587 23.3166 301.505 22.4075C300.424 21.4983 299.057 20.9999 297.644 20.9999H216.38C214.968 20.9999 213.601 21.4979 212.52 22.4063C211.439 23.3146 210.713 24.5751 210.47 25.9659L202.009 74.3429C190.024 77.7834 178.412 82.4128 167.347 88.1619L126.3 58.8649C125.146 58.0405 123.736 57.6519 122.322 57.7679C120.909 57.884 119.582 58.4973 118.577 59.4989L61.119 116.782C60.1145 117.783 59.4973 119.109 59.377 120.522C59.2567 121.936 59.6411 123.346 60.462 124.503L89.494 165.426C83.2977 176.422 78.2231 188.014 74.347 200.026L24.007 208.471C22.6067 208.706 21.335 209.43 20.4182 210.514C19.5014 211.599 18.9989 212.973 19 214.393V295.6C19.0001 297.018 19.5022 298.39 20.4175 299.473C21.3327 300.556 22.602 301.28 24 301.516L74.34 310C78.055 321.837 82.9171 333.283 88.857 344.175C84.4398 345.611 79.9216 346.716 75.34 347.481C59.1256 350.08 44.1694 357.803 32.6614 369.517C21.1535 381.232 13.6985 396.323 11.388 412.581C9.18598 427.569 11.4148 442.874 17.8 456.611C18.2074 457.486 18.8197 458.249 19.585 458.837C20.3504 459.425 21.2462 459.819 22.1965 459.987C23.1468 460.155 24.1235 460.091 25.0438 459.801C25.9641 459.51 26.8009 459.002 27.483 458.32L67.227 418.559L92.913 444.259L53.123 484.067C52.4425 484.748 51.9358 485.582 51.6456 486.5C51.3554 487.418 51.2903 488.392 51.4557 489.34C51.6212 490.288 52.0123 491.183 52.5961 491.948C53.1799 492.713 53.9392 493.327 54.81 493.737C69.2621 500.544 85.4582 502.741 101.201 500.029C116.944 497.318 131.473 489.83 142.815 478.581C153.921 467.428 161.339 453.136 164.066 437.635C164.98 432.579 166.237 427.591 167.826 422.705C178.686 428.793 190.122 433.79 201.967 437.622L210.467 488.001C210.703 489.399 211.427 490.668 212.51 491.583C213.593 492.499 214.965 493.001 216.383 493.001H297.647C299.065 493.001 300.437 492.499 301.521 491.584C302.604 490.668 303.328 489.399 303.564 488.001L312.047 437.629C324.065 433.851 335.68 428.895 346.724 422.835L387.761 451.662C388.917 452.474 390.323 452.852 391.73 452.729C393.138 452.607 394.457 451.992 395.455 450.992L452.916 393.46C453.916 392.459 454.53 391.136 454.65 389.726C454.769 388.316 454.386 386.909 453.569 385.754L424.5 344.667C430.463 333.253 434.426 321.375 437.713 309.992L486.034 301.513C487.425 301.269 488.686 300.543 489.595 299.461C490.503 298.38 491.001 297.012 491 295.6V214.393C491 212.981 490.502 211.614 489.594 210.533C488.686 209.451 487.425 208.725 486.034 208.482L437.7 200.027C434.44 188.702 430.131 177.706 424.829 167.182C428.545 166.098 432.322 165.237 436.141 164.604C453.256 161.788 468.907 153.242 480.529 140.366V140.366ZM84.815 303.085C84.5083 301.988 83.8958 301.002 83.0492 300.24C82.2026 299.479 81.1568 298.974 80.034 298.785L31 290.529V219.47L80.031 211.245C81.1544 211.056 82.2008 210.552 83.048 209.79C83.8951 209.029 84.508 208.042 84.815 206.945C88.168 194.985 93.565 182.603 101.801 167.978C102.359 166.987 102.624 165.857 102.565 164.721C102.506 163.585 102.125 162.49 101.467 161.562L73.186 121.7L123.46 71.5789L163.434 100.113C164.362 100.775 165.459 101.159 166.597 101.221C167.735 101.282 168.868 101.018 169.861 100.459C181.019 94.1849 193.785 89.0779 208.891 84.8489C209.981 84.5437 210.963 83.9363 211.723 83.0969C212.482 82.2574 212.989 81.2201 213.184 80.1049L221.422 32.9999H292.6L300.812 80.0999C301.007 81.2157 301.513 82.2536 302.273 83.0936C303.032 83.9337 304.014 84.5415 305.105 84.8469C315.953 87.8839 328.419 91.7789 340.179 97.7939C335.673 108.333 329.445 118.049 321.751 126.545C301.647 116.41 279.449 111.124 256.935 111.111C200.01 111.111 150.71 144.852 127.42 192.354C127.044 193.059 126.813 193.833 126.742 194.629C126.67 195.425 126.759 196.228 127.004 196.989C127.248 197.75 127.643 198.454 128.164 199.06C128.686 199.666 129.323 200.161 130.04 200.516C130.756 200.871 131.536 201.078 132.334 201.126C133.132 201.174 133.932 201.061 134.685 200.794C135.439 200.527 136.131 200.111 136.721 199.572C137.311 199.033 137.787 198.38 138.12 197.654C153.207 166.38 180.024 142.322 212.746 130.706C245.468 119.09 281.451 120.854 312.88 135.615L272.38 176.131C259.441 173.594 246.076 174.279 233.464 178.125C220.851 181.971 209.379 188.861 200.057 198.187C190.736 207.513 183.851 218.988 180.01 231.603C176.17 244.217 175.491 257.582 178.034 270.52L137.6 310.969C126.911 288.129 122.966 262.713 126.229 237.708C126.335 236.868 126.261 236.016 126.013 235.207C125.764 234.398 125.346 233.652 124.786 233.017C124.226 232.383 123.538 231.875 122.766 231.527C121.995 231.179 121.158 230.999 120.312 231H120.259C118.81 230.997 117.409 231.523 116.318 232.477C115.227 233.432 114.521 234.751 114.332 236.188C110.587 264.894 115.57 294.063 128.632 319.899C120.288 328.039 110.654 334.741 100.12 339.734C93.6528 328.134 88.5185 315.839 84.815 303.085V303.085ZM188.7 259.847C188.587 258.236 188.523 256.619 188.523 254.998C188.55 236.868 195.767 219.489 208.592 206.674C221.416 193.859 238.8 186.654 256.93 186.64C258.524 186.64 260.116 186.701 261.703 186.811L188.7 259.847ZM427.2 206.911C427.505 208.001 428.113 208.982 428.952 209.741C429.791 210.5 430.828 211.007 431.943 211.202L479 219.434V290.564L431.937 298.822C430.823 299.017 429.786 299.524 428.947 300.283C428.109 301.042 427.501 302.023 427.196 303.112C423.591 315.976 419.281 329.612 412.222 342.142C411.664 343.132 411.399 344.26 411.458 345.395C411.516 346.529 411.896 347.624 412.552 348.552L440.852 388.552L390.529 438.937L350.555 410.857C349.628 410.206 348.537 409.83 347.406 409.774C346.275 409.717 345.151 409.982 344.164 410.537C331.86 417.604 318.758 423.18 305.135 427.148C304.039 427.455 303.052 428.067 302.29 428.914C301.529 429.76 301.024 430.806 300.835 431.929L292.569 481H221.452L213.171 431.928C212.981 430.805 212.476 429.76 211.715 428.914C210.954 428.068 209.967 427.455 208.871 427.149C197.639 424.004 185.925 418.983 172.191 411.42C176.931 400.913 183.423 391.288 191.391 382.959C211.685 393.32 234.146 398.722 256.931 398.722C336.231 398.722 400.743 334.248 400.743 254.998C400.743 232.215 395.333 209.757 384.958 189.473C393.388 181.884 403.009 175.732 413.435 171.265C419.271 182.626 423.886 194.575 427.2 206.911V206.911ZM325.09 249.149C325.255 251.09 325.344 253.041 325.344 254.998C325.317 273.128 318.1 290.507 305.276 303.322C292.452 316.137 275.068 323.342 256.938 323.356C255.006 323.356 253.08 323.27 251.163 323.11L325.09 249.149ZM240.59 333.686C253.651 336.401 267.182 335.824 279.964 332.005C292.746 328.187 304.377 321.247 313.808 311.813C323.239 302.378 330.173 290.744 333.987 277.961C337.8 265.177 338.372 251.646 335.651 238.586L375.93 198.286C384.366 216.002 388.744 235.377 388.746 255C388.746 327.633 329.615 386.724 256.934 386.724C237.35 386.722 218.011 382.369 200.315 373.979L240.59 333.686ZM372.562 184.679L184.3 373.026C167.723 389.61 156.641 411.213 152.252 435.499C149.957 448.595 143.699 460.672 134.323 470.099C125.796 478.564 115.111 484.529 103.431 487.347C91.751 490.165 79.5218 489.727 68.073 486.081L105.635 448.5C106.76 447.375 107.392 445.849 107.392 444.258C107.392 442.667 106.76 441.141 105.635 440.016L71.465 405.83C70.9079 405.273 70.2464 404.831 69.5184 404.529C68.7903 404.227 68.0101 404.072 67.222 404.072C66.434 404.072 65.6537 404.227 64.9257 404.529C64.1977 404.831 63.5362 405.273 62.979 405.83L25.513 443.312C22.1779 432.378 21.724 420.769 24.1954 409.608C26.6669 398.448 31.9797 388.115 39.619 379.612C49.515 368.771 62.8002 361.613 77.297 359.312C99.979 355.563 121.154 344.393 138.531 327.012L326.794 138.668C343.661 121.697 354.914 99.9587 359.035 76.3889C361.414 63.3376 367.74 51.3306 377.16 41.9889C385.606 33.5257 396.203 27.5292 407.807 24.6463C419.411 21.7634 431.582 22.1035 443.007 25.6299L403.907 64.7499C402.783 65.875 402.151 67.4007 402.151 68.9914C402.151 70.5821 402.783 72.1078 403.907 73.2329L438.077 107.419C438.634 107.976 439.296 108.418 440.024 108.72C440.752 109.022 441.532 109.177 442.321 109.177C443.109 109.177 443.889 109.022 444.617 108.72C445.345 108.418 446.007 107.976 446.564 107.419L485.59 68.3749C492.416 90.4429 487.26 115.201 471.67 132.275C461.858 143.155 448.642 150.38 434.187 152.765C410.835 156.761 389.301 167.913 372.562 184.679V184.679Z" fill="white"/>
</svg>
